<svg width="300" height="48" viewBox="0 0 300 48" fill="none" xmlns="http://www.w3.org/2000/svg">
<path d="M13.697 36L13.3155 35.6836C12.592 35.0788 11.6127 34.4228 10.4775 33.6644C6.05525 30.7031 0 26.6508 0 19.7418C0 15.4731 3.4731 12 7.74179 12C10.0611 12 12.2338 13.0329 13.697 14.7985C15.1602 13.0329 17.3329 12 19.6522 12C23.9209 12 27.394 15.4731 27.394 19.7418C27.394 26.6508 21.3388 30.7031 16.9165 33.6644C15.7813 34.4228 14.802 35.0788 14.0785 35.6836L13.697 36Z" fill="#D32B5E"/>
<path d="M46.706 15.752L47.186 18.008C47.186 18.552 46.994 19 46.61 19.352C46.226 19.704 45.778 19.88 45.266 19.88C44.754 19.88 44.37 19.64 44.114 19.16C43.89 18.68 43.778 18.152 43.778 17.576C43.778 15.848 44.514 14.296 45.986 12.92C47.49 11.512 49.186 10.808 51.074 10.808H51.362C52.002 8.376 52.962 7.16 54.242 7.16C54.626 7.16 54.818 7.672 54.818 8.696C54.818 8.888 54.77 9.656 54.674 11C55.154 11.064 55.714 11.144 56.354 11.24C57.858 11.464 59.106 11.576 60.098 11.576C61.122 11.576 62.146 11.416 63.17 11.096C64.226 10.744 64.93 10.568 65.282 10.568C66.178 10.568 66.626 11.032 66.626 11.96C66.626 12.856 66.146 13.544 65.186 14.024C64.226 14.472 62.834 14.696 61.01 14.696C59.186 14.696 56.962 14.28 54.338 13.448C53.954 15.656 53.73 17.32 53.666 18.44C53.602 19.56 53.538 21.224 53.474 23.432C54.818 23.368 56.674 23.336 59.042 23.336C59.458 23.336 59.81 23.496 60.098 23.816C60.418 24.136 60.578 24.472 60.578 24.824C60.578 25.176 60.466 25.464 60.242 25.688C60.018 25.912 59.778 26.024 59.522 26.024L53.426 25.688C53.298 28.824 53.186 30.952 53.09 32.072C53.026 33.192 52.722 34.232 52.178 35.192C51.634 36.152 50.994 36.632 50.258 36.632C49.842 36.632 49.378 36.408 48.866 35.96C48.386 35.544 48.146 35.144 48.146 34.76C48.146 34.376 48.194 34.088 48.29 33.896C48.418 33.672 48.546 33.464 48.674 33.272C48.834 33.048 48.946 32.872 49.01 32.744C49.394 31.912 49.746 29.624 50.066 25.88L48.194 26.12C47.938 26.12 47.73 26.04 47.57 25.88C47.41 25.688 47.33 25.48 47.33 25.256C47.33 25 47.378 24.776 47.474 24.584C47.57 24.392 47.762 24.248 48.05 24.152C48.338 24.024 48.546 23.944 48.674 23.912C49.186 23.784 49.698 23.72 50.21 23.72C50.274 22.952 50.354 21.288 50.45 18.728C50.578 16.168 50.754 14.168 50.978 12.728C50.786 12.696 50.498 12.68 50.114 12.68C47.842 12.68 46.706 13.704 46.706 15.752ZM76.5227 35.24C75.2747 35.24 74.3307 34.984 73.6907 34.472C73.4667 34.248 73.3547 33.688 73.3547 32.792C73.3547 31.864 73.3867 30.632 73.4507 29.096C72.6187 31.176 71.7867 32.728 70.9547 33.752C70.1547 34.744 69.1147 35.24 67.8347 35.24C66.5547 35.24 65.4347 34.648 64.4747 33.464C63.5147 32.248 63.0347 30.36 63.0347 27.8C63.0347 25.208 63.7547 22.92 65.1947 20.936C66.6667 18.952 68.5867 17.96 70.9547 17.96C71.9787 17.96 73.1307 18.632 74.4107 19.976C74.6667 19.624 75.1147 19.208 75.7547 18.728C76.4267 18.216 76.9867 17.96 77.4347 17.96C77.9147 17.96 78.1547 18.568 78.1547 19.784C78.1547 20.104 78.0587 20.728 77.8667 21.656C77.7067 22.584 77.5147 23.256 77.2907 23.672C77.0027 24.408 76.8587 27.016 76.8587 31.496C76.8587 32.36 76.9547 32.792 77.1467 32.792C77.6907 32.76 78.4427 32.088 79.4027 30.776C80.3627 29.432 81.3067 27.72 82.2347 25.64C83.1947 23.56 83.7707 22.52 83.9627 22.52C84.1867 22.52 84.2987 22.648 84.2987 22.904C84.2987 23.8 83.8347 25.224 82.9067 27.176C80.3787 32.552 78.2507 35.24 76.5227 35.24ZM70.6667 19.88C69.7707 19.88 68.8107 20.552 67.7867 21.896C66.7947 23.208 66.2987 24.76 66.2987 26.552C66.2987 28.344 66.5547 29.816 67.0667 30.968C67.6107 32.12 68.3147 32.696 69.1787 32.696C70.2347 32.696 71.7867 30.056 73.8347 24.776C73.8667 24.52 73.8987 24.088 73.9307 23.48C73.9947 22.84 74.0427 22.36 74.0747 22.04C73.7867 21.528 73.2747 21.048 72.5387 20.6C71.8347 20.12 71.2107 19.88 70.6667 19.88ZM85.3937 32.408L85.4417 33.896C85.4417 34.792 85.1857 35.24 84.6737 35.24C83.9057 35.24 83.1697 35.144 82.4657 34.952C81.7617 34.728 81.4097 34.44 81.4097 34.088C81.4097 33.704 81.4897 32.44 81.6497 30.296C81.8417 28.12 81.9377 26.488 81.9377 25.4V22.568C81.9377 21.032 82.0977 20.104 82.4177 19.784C82.7377 19.464 83.2977 19 84.0977 18.392C84.9297 17.784 85.5217 17.48 85.8737 17.48C86.2577 17.48 86.4977 17.544 86.5937 17.672C86.6897 17.8 86.7377 18.04 86.7377 18.392C86.7377 20.088 86.4177 21.688 85.7777 23.192C85.6177 25.016 85.5377 26.28 85.5377 26.984C87.2337 23.816 88.4177 21.736 89.0897 20.744C90.2737 18.888 91.3457 17.96 92.3057 17.96C92.9137 17.96 93.4737 18.2 93.9857 18.68C94.5297 19.16 94.8017 19.752 94.8017 20.456C94.8017 21.16 94.7857 21.832 94.7537 22.472C94.7537 23.08 94.7377 23.56 94.7057 23.912C94.6737 24.264 94.6577 24.488 94.6577 24.584C94.7857 24.328 95.3297 23.608 96.2897 22.424C97.2497 21.24 97.8897 20.472 98.2097 20.12C98.5617 19.768 98.9297 19.416 99.3137 19.064C100.05 18.328 100.706 17.96 101.282 17.96C101.89 17.96 102.45 18.184 102.962 18.632C103.506 19.08 103.778 19.64 103.778 20.312C103.778 21.72 103.618 23.8 103.298 26.552C103.01 29.272 102.866 31 102.866 31.736C102.866 32.44 102.962 32.792 103.154 32.792C103.698 32.76 104.45 32.088 105.41 30.776C106.37 29.432 107.314 27.72 108.242 25.64C109.202 23.56 109.778 22.52 109.97 22.52C110.194 22.52 110.306 22.648 110.306 22.904C110.306 23.8 109.842 25.224 108.914 27.176C106.386 32.552 104.258 35.24 102.53 35.24C101.442 35.24 100.578 34.984 99.9377 34.472C99.7137 34.248 99.6017 33.672 99.6017 32.744C99.6017 31.784 99.6817 30.248 99.8417 28.136C100.034 25.992 100.13 24.392 100.13 23.336C100.13 22.28 99.9537 21.752 99.6017 21.752C99.1857 21.752 98.2737 22.456 96.8657 23.864C95.4897 25.272 94.7537 26.264 94.6577 26.84C94.4657 27.928 94.3697 30.28 94.3697 33.896C94.3697 34.792 94.1297 35.24 93.6497 35.24C92.9137 35.24 92.2097 35.144 91.5377 34.952C90.8977 34.728 90.5777 34.44 90.5777 34.088C90.5777 33.704 90.6737 32.12 90.8657 29.336C91.0577 26.552 91.1537 24.6 91.1537 23.48C91.1537 22.328 90.9617 21.752 90.5777 21.752C90.2257 21.752 89.3457 22.856 87.9377 25.064C86.5297 27.24 85.7457 28.76 85.5857 29.624C85.4577 30.488 85.3937 31.416 85.3937 32.408ZM109.201 11.528C109.201 10.952 109.505 10.456 110.113 10.04C110.721 9.624 111.265 9.416 111.745 9.416C112.609 9.416 113.041 9.912 113.041 10.904C113.041 11.896 112.785 12.76 112.273 13.496C111.761 14.2 111.041 14.552 110.113 14.552C109.505 14.552 109.201 13.544 109.201 11.528ZM110.593 35.24C109.345 35.24 108.401 34.984 107.761 34.472C107.537 34.248 107.425 33.448 107.425 32.072C107.425 30.696 107.521 28.408 107.713 25.208C107.937 21.976 108.129 20.232 108.289 19.976C108.449 19.72 108.945 19.24 109.777 18.536C110.609 17.832 111.249 17.48 111.697 17.48C112.177 17.48 112.417 18.088 112.417 19.304C112.417 19.624 112.321 20.248 112.129 21.176C111.969 22.104 111.777 22.776 111.553 23.192C111.137 24.248 110.929 27.016 110.929 31.496C110.929 32.36 111.025 32.792 111.217 32.792C111.761 32.76 112.513 32.088 113.473 30.776C114.433 29.432 115.377 27.72 116.305 25.64C117.265 23.56 117.841 22.52 118.033 22.52C118.257 22.52 118.369 22.648 118.369 22.904C118.369 23.8 117.905 25.224 116.977 27.176C114.449 32.552 112.321 35.24 110.593 35.24ZM119.32 35.24C118.616 35.24 117.96 35.16 117.352 35C116.776 34.808 116.424 34.632 116.296 34.472C115.976 34.088 115.816 32.104 115.816 28.52C115.816 24.904 116.216 20.008 117.016 13.832C117.688 8.744 119.256 6.2 121.72 6.2C122.296 6.2 122.712 6.52 122.968 7.16C123.224 7.768 123.352 8.36 123.352 8.936C123.352 13.096 122.088 17.752 119.56 22.904C119.464 25.56 119.416 27.88 119.416 29.864C119.416 31.816 119.592 32.792 119.944 32.792C120.488 32.76 121.24 32.088 122.2 30.776C123.16 29.432 124.104 27.72 125.032 25.64C125.992 23.56 126.568 22.52 126.76 22.52C126.984 22.52 127.096 22.648 127.096 22.904C127.096 23.8 126.632 25.224 125.704 27.176C123.176 32.552 121.048 35.24 119.32 35.24ZM122.152 9.368C122.152 8.344 122.024 7.832 121.768 7.832C120.808 7.832 120.104 11.816 119.656 19.784C121.32 15.4 122.152 11.928 122.152 9.368ZM125.983 11.528C125.983 10.952 126.287 10.456 126.895 10.04C127.503 9.624 128.047 9.416 128.527 9.416C129.391 9.416 129.823 9.912 129.823 10.904C129.823 11.896 129.567 12.76 129.055 13.496C128.543 14.2 127.823 14.552 126.895 14.552C126.287 14.552 125.983 13.544 125.983 11.528ZM127.375 35.24C126.127 35.24 125.183 34.984 124.543 34.472C124.319 34.248 124.207 33.448 124.207 32.072C124.207 30.696 124.303 28.408 124.495 25.208C124.719 21.976 124.911 20.232 125.071 19.976C125.231 19.72 125.727 19.24 126.559 18.536C127.391 17.832 128.031 17.48 128.479 17.48C128.959 17.48 129.199 18.088 129.199 19.304C129.199 19.624 129.103 20.248 128.911 21.176C128.751 22.104 128.559 22.776 128.335 23.192C127.919 24.248 127.711 27.016 127.711 31.496C127.711 32.36 127.807 32.792 127.999 32.792C128.543 32.76 129.295 32.088 130.255 30.776C131.215 29.432 132.159 27.72 133.087 25.64C134.047 23.56 134.623 22.52 134.815 22.52C135.039 22.52 135.151 22.648 135.151 22.904C135.151 23.8 134.687 25.224 133.759 27.176C131.231 32.552 129.103 35.24 127.375 35.24ZM138.453 35.24C136.661 35.24 135.237 34.568 134.181 33.224C133.125 31.848 132.597 30.296 132.597 28.568C132.597 25.08 133.333 22.44 134.805 20.648C136.277 18.856 138.181 17.96 140.517 17.96C141.605 17.96 142.501 18.264 143.205 18.872C143.909 19.448 144.261 20.248 144.261 21.272C144.261 23.192 143.445 24.808 141.813 26.12C140.213 27.4 138.245 28.072 135.909 28.136C136.037 29.384 136.453 30.472 137.157 31.4C137.893 32.296 138.741 32.744 139.701 32.744C140.661 32.744 141.525 32.52 142.293 32.072C143.061 31.624 143.765 30.984 144.405 30.152C145.749 28.392 146.901 26.392 147.861 24.152C148.117 23.576 148.309 23.16 148.437 22.904C148.597 22.648 148.757 22.52 148.917 22.52C149.109 22.52 149.205 22.648 149.205 22.904C149.205 24.504 148.229 26.904 146.277 30.104C144.165 33.528 141.557 35.24 138.453 35.24ZM135.909 26.984C137.797 26.664 139.173 26.056 140.037 25.16C140.933 24.264 141.381 23.096 141.381 21.656C141.381 20.216 140.917 19.496 139.989 19.496C138.869 19.496 137.925 20.28 137.157 21.848C136.389 23.384 135.973 25.096 135.909 26.984ZM150.404 32.408L150.452 33.896C150.452 34.792 150.196 35.24 149.684 35.24C148.916 35.24 148.18 35.144 147.476 34.952C146.772 34.728 146.42 34.44 146.42 34.088C146.42 33.704 146.5 32.44 146.66 30.296C146.852 28.12 146.948 26.488 146.948 25.4V22.568C146.948 21.032 147.108 20.104 147.428 19.784C147.748 19.464 148.308 19 149.108 18.392C149.94 17.784 150.532 17.48 150.884 17.48C151.268 17.48 151.508 17.544 151.604 17.672C151.7 17.8 151.748 18.04 151.748 18.392C151.748 20.088 151.428 21.688 150.788 23.192C150.628 25.016 150.548 26.28 150.548 26.984C150.676 26.792 151.348 25.704 152.564 23.72C153.78 21.736 154.804 20.28 155.636 19.352C156.5 18.424 157.268 17.96 157.94 17.96C158.612 17.96 159.204 18.184 159.716 18.632C160.26 19.08 160.532 19.64 160.532 20.312C160.532 21.72 160.372 23.8 160.052 26.552C159.764 29.272 159.62 31 159.62 31.736C159.62 32.44 159.716 32.792 159.908 32.792C160.452 32.76 161.204 32.088 162.164 30.776C163.124 29.432 164.068 27.72 164.996 25.64C165.956 23.56 166.532 22.52 166.724 22.52C166.948 22.52 167.06 22.648 167.06 22.904C167.06 23.8 166.596 25.224 165.668 27.176C163.14 32.552 161.012 35.24 159.284 35.24C158.036 35.24 157.092 34.984 156.452 34.472C156.228 34.248 156.116 33.672 156.116 32.744C156.116 31.784 156.196 30.248 156.356 28.136C156.548 25.992 156.644 24.392 156.644 23.336C156.644 22.28 156.452 21.752 156.068 21.752C155.716 21.752 154.756 22.856 153.188 25.064C151.62 27.24 150.788 28.632 150.692 29.24C150.5 30.36 150.404 31.416 150.404 32.408ZM179.928 36.68L181.224 36.536C181.48 36.536 181.608 36.664 181.608 36.92C181.608 37.368 181.304 37.704 180.696 37.928C180.088 38.152 179.4 38.264 178.632 38.264C177.192 38.264 175.976 37.688 174.984 36.536C174.024 35.384 172.68 33.256 170.952 30.152C170.536 29.48 170.328 28.968 170.328 28.616C170.328 28.136 171 27.576 172.344 26.936C174.52 25.816 175.608 24.408 175.608 22.712C175.608 22.232 175.432 21.832 175.08 21.512C174.76 21.16 174.328 20.984 173.784 20.984C173.016 20.984 172.104 21.896 171.048 23.72C169.992 25.512 169.272 27.208 168.888 28.808C168.536 30.376 168.36 32.072 168.36 33.896C168.36 34.792 168.104 35.24 167.592 35.24C166.856 35.24 166.152 35.144 165.48 34.952C164.808 34.728 164.472 34.456 164.472 34.136C164.472 33.784 164.6 32.264 164.856 29.576C165.112 26.856 165.256 24.904 165.288 23.72C165.416 17.192 165.8 12.2 166.44 8.744C166.536 8.456 166.968 7.96 167.736 7.256C168.536 6.552 169.176 6.2 169.656 6.2C170.136 6.2 170.36 6.808 170.328 8.024C170.328 9.208 170.072 11.768 169.56 15.704C169.048 19.64 168.728 23.24 168.6 26.504C169.176 24.456 170.088 22.52 171.336 20.696C172.616 18.872 173.896 17.96 175.176 17.96C177.352 17.96 178.44 19.016 178.44 21.128C178.44 22.536 178.024 23.816 177.192 24.968C176.36 26.088 175.24 27 173.832 27.704C173.544 27.832 173.4 27.976 173.4 28.136C173.4 28.296 173.448 28.456 173.544 28.616C175.56 32.168 177.272 34.664 178.68 36.104C179.064 36.488 179.48 36.68 179.928 36.68ZM195.949 24.584C197.229 24.168 198.109 23.816 198.589 23.528C199.101 23.208 199.485 22.968 199.741 22.808L200.317 22.472C200.477 22.376 200.605 22.328 200.701 22.328C200.957 22.328 201.085 22.472 201.085 22.76C201.085 23.048 200.589 23.56 199.597 24.296C198.605 25 197.373 25.64 195.901 26.216C195.677 28.904 194.829 31.08 193.357 32.744C191.885 34.408 189.789 35.24 187.069 35.24C185.085 35.24 183.565 34.456 182.509 32.888C181.453 31.288 180.925 29.432 180.925 27.32C180.925 25.176 181.549 23.16 182.797 21.272C184.077 19.384 185.709 18.44 187.693 18.44C188.589 17.8 189.645 17.48 190.861 17.48C192.109 17.48 193.261 18.136 194.317 19.448C195.373 20.76 195.917 22.472 195.949 24.584ZM192.829 27.032L191.101 27.128C189.629 27.128 188.381 26.696 187.357 25.832C186.333 24.936 185.821 23.96 185.821 22.904C185.821 21.848 185.997 20.936 186.349 20.168C184.973 21.256 184.285 23.4 184.285 26.6C184.285 28.136 184.605 29.608 185.245 31.016C185.885 32.392 186.893 33.08 188.269 33.08C189.645 33.08 190.717 32.504 191.485 31.352C192.253 30.168 192.701 28.728 192.829 27.032ZM189.853 19.064C189.341 19.064 188.941 19.304 188.653 19.784C188.365 20.232 188.221 20.728 188.221 21.272C188.221 22.456 188.621 23.416 189.421 24.152C190.253 24.888 191.213 25.256 192.301 25.256H192.877C192.813 23.688 192.541 22.264 192.061 20.984C191.613 19.704 190.877 19.064 189.853 19.064ZM207.002 23.336L207.386 20.888C207.386 20.536 207.274 20.216 207.05 19.928C206.826 19.64 206.538 19.496 206.186 19.496C205.002 19.496 203.978 20.392 203.114 22.184C202.25 23.944 201.818 25.64 201.818 27.272C201.818 28.904 202.154 30.232 202.826 31.256C203.498 32.248 204.314 32.744 205.274 32.744C206.266 32.744 207.146 32.52 207.914 32.072C208.682 31.624 209.386 30.984 210.026 30.152C211.37 28.392 212.522 26.392 213.482 24.152C213.738 23.576 213.93 23.16 214.058 22.904C214.218 22.648 214.378 22.52 214.538 22.52C214.73 22.52 214.826 22.648 214.826 22.904C214.826 23.96 214.458 25.224 213.722 26.696C212.986 28.168 212.362 29.304 211.85 30.104C211.37 30.872 210.746 31.688 209.978 32.552C208.378 34.344 206.378 35.24 203.978 35.24C202.154 35.24 200.762 34.6 199.802 33.32C198.874 32.008 198.41 30.616 198.41 29.144C198.41 25.496 199.194 22.728 200.762 20.84C202.362 18.92 204.378 17.96 206.81 17.96C207.834 17.96 208.634 18.232 209.21 18.776C209.818 19.288 210.122 19.88 210.122 20.552C210.122 21.8 209.898 22.728 209.45 23.336C209.002 23.944 208.458 24.248 207.818 24.248C207.274 24.248 207.002 23.944 207.002 23.336ZM216.128 32.408L216.176 33.896C216.176 34.792 215.92 35.24 215.408 35.24C214.64 35.24 213.904 35.144 213.2 34.952C212.496 34.728 212.144 34.44 212.144 34.088C212.144 33.704 212.224 32.44 212.384 30.296C212.576 28.12 212.672 26.488 212.672 25.4V22.616C212.672 14.424 214.128 9.208 217.04 6.968C217.712 6.456 218.4 6.2 219.104 6.2C219.424 6.2 219.744 6.552 220.064 7.256C220.384 7.96 220.544 8.872 220.544 9.992C220.544 12.744 220.08 15.32 219.152 17.72C218.224 20.12 217.28 21.96 216.32 23.24C216.288 24.04 216.272 25.288 216.272 26.984C216.4 26.792 217.072 25.704 218.288 23.72C219.504 21.736 220.528 20.28 221.36 19.352C222.224 18.424 222.992 17.96 223.664 17.96C224.336 17.96 224.928 18.184 225.44 18.632C225.984 19.08 226.256 19.64 226.256 20.312C226.256 21.72 226.096 23.8 225.776 26.552C225.488 29.272 225.344 31 225.344 31.736C225.344 32.44 225.44 32.792 225.632 32.792C226.176 32.76 226.928 32.088 227.888 30.776C228.848 29.432 229.792 27.72 230.72 25.64C231.68 23.56 232.256 22.52 232.448 22.52C232.672 22.52 232.784 22.648 232.784 22.904C232.784 23.8 232.32 25.224 231.392 27.176C228.864 32.552 226.736 35.24 225.008 35.24C223.76 35.24 222.816 34.984 222.176 34.472C221.952 34.248 221.84 33.672 221.84 32.744C221.84 31.784 221.92 30.248 222.08 28.136C222.272 25.992 222.368 24.392 222.368 23.336C222.368 22.28 222.176 21.752 221.792 21.752C221.44 21.752 220.48 22.856 218.912 25.064C217.344 27.24 216.512 28.632 216.416 29.24C216.224 30.36 216.128 31.416 216.128 32.408ZM219.248 11.048C219.248 9.704 219.072 9.032 218.72 9.032C218.144 9.032 217.584 10.808 217.04 14.36C216.752 16.248 216.544 18.44 216.416 20.936C218.304 17 219.248 13.704 219.248 11.048ZM238.933 18.44C240.405 18.44 241.621 18.984 242.581 20.072C243.541 21.128 244.037 22.616 244.069 24.536C245.381 24.152 246.533 23.688 247.525 23.144C248.549 22.6 249.093 22.328 249.157 22.328C249.349 22.328 249.445 22.488 249.445 22.808C249.445 23.128 248.981 23.624 248.053 24.296C247.157 24.968 245.797 25.64 243.973 26.312C243.589 29.16 242.437 31.368 240.517 32.936C238.597 34.472 236.677 35.24 234.757 35.24C232.837 35.24 231.557 34.536 230.917 33.128C230.277 31.688 229.957 29.432 229.957 26.36C229.957 23.288 230.181 20.376 230.629 17.624C231.077 14.872 231.653 12.712 232.357 11.144C233.061 9.544 233.781 8.328 234.517 7.496C235.285 6.632 236.005 6.2 236.677 6.2C236.997 6.2 237.285 6.584 237.541 7.352C237.829 8.12 237.973 9.064 237.973 10.184C237.973 12.648 237.525 15.528 236.629 18.824C237.237 18.568 238.005 18.44 238.933 18.44ZM241.093 27.08C240.837 27.112 240.293 27.128 239.461 27.128C238.661 27.128 237.765 26.856 236.773 26.312C235.813 25.736 235.157 24.952 234.805 23.96C234.485 24.76 234.117 25.528 233.701 26.264C233.765 28.696 233.957 30.44 234.277 31.496C234.597 32.552 235.109 33.08 235.813 33.08C236.933 33.08 238.021 32.616 239.077 31.688C240.165 30.728 240.837 29.192 241.093 27.08ZM236.821 11.048C236.821 9.704 236.645 9.032 236.293 9.032C236.005 9.032 235.653 9.736 235.237 11.144C234.853 12.52 234.485 14.408 234.133 16.808C233.813 19.176 233.653 21.528 233.653 23.864C235.765 17.88 236.821 13.608 236.821 11.048ZM238.165 20.168C237.717 20.168 237.349 20.312 237.061 20.6C236.805 20.856 236.677 21.208 236.677 21.656C236.677 22.648 237.109 23.48 237.973 24.152C238.869 24.792 239.941 25.112 241.189 25.112C241.157 23.8 240.901 22.648 240.421 21.656C239.941 20.664 239.189 20.168 238.165 20.168ZM247.16 30.824L247.448 25.448C247.448 22.024 247.608 20.152 247.928 19.832C248.248 19.512 248.808 19.048 249.608 18.44C250.44 17.8 251.032 17.48 251.384 17.48C251.768 17.48 252.008 17.544 252.104 17.672C252.2 17.8 252.248 18.056 252.248 18.44C252.248 19.816 251.944 21.208 251.336 22.616C250.856 25.56 250.616 27.976 250.616 29.864C250.616 31.752 250.92 32.696 251.528 32.696C252.264 32.696 253.128 32.056 254.12 30.776C255.112 29.496 256.104 27.592 257.096 25.064C257.384 21.864 257.608 20.136 257.768 19.88C257.96 19.624 258.408 19.16 259.112 18.488C259.816 17.816 260.392 17.48 260.84 17.48C261.32 17.48 261.56 18.088 261.56 19.304C261.56 19.624 261.464 20.248 261.272 21.176C261.112 22.104 260.92 22.776 260.696 23.192C260.344 24.088 260.168 26.856 260.168 31.496C260.168 32.36 260.264 32.792 260.456 32.792C261 32.76 261.752 32.088 262.712 30.776C263.672 29.432 264.616 27.72 265.544 25.64C266.504 23.56 267.08 22.52 267.272 22.52C267.496 22.52 267.608 22.648 267.608 22.904C267.608 23.8 267.144 25.224 266.216 27.176C263.688 32.552 261.56 35.24 259.832 35.24C258.584 35.24 257.64 34.984 257 34.472C256.776 34.248 256.664 33.56 256.664 32.408C256.664 31.256 256.712 29.976 256.808 28.568C255.784 30.744 254.76 32.408 253.736 33.56C252.712 34.68 251.56 35.24 250.28 35.24C249.032 35.24 248.2 34.904 247.784 34.232C247.368 33.56 247.16 32.424 247.16 30.824ZM273.283 23.336L273.667 20.888C273.667 20.536 273.555 20.216 273.331 19.928C273.107 19.64 272.819 19.496 272.467 19.496C271.283 19.496 270.259 20.392 269.395 22.184C268.531 23.944 268.099 25.64 268.099 27.272C268.099 28.904 268.435 30.232 269.107 31.256C269.779 32.248 270.595 32.744 271.555 32.744C272.547 32.744 273.427 32.52 274.195 32.072C274.963 31.624 275.667 30.984 276.307 30.152C277.651 28.392 278.803 26.392 279.763 24.152C280.019 23.576 280.211 23.16 280.339 22.904C280.499 22.648 280.659 22.52 280.819 22.52C281.011 22.52 281.107 22.648 281.107 22.904C281.107 23.96 280.739 25.224 280.003 26.696C279.267 28.168 278.643 29.304 278.131 30.104C277.651 30.872 277.027 31.688 276.259 32.552C274.659 34.344 272.659 35.24 270.259 35.24C268.435 35.24 267.043 34.6 266.083 33.32C265.155 32.008 264.691 30.616 264.691 29.144C264.691 25.496 265.475 22.728 267.043 20.84C268.643 18.92 270.659 17.96 273.091 17.96C274.115 17.96 274.915 18.232 275.491 18.776C276.099 19.288 276.403 19.88 276.403 20.552C276.403 21.8 276.179 22.728 275.731 23.336C275.283 23.944 274.739 24.248 274.099 24.248C273.555 24.248 273.283 23.944 273.283 23.336ZM282.409 32.408L282.457 33.896C282.457 34.792 282.201 35.24 281.689 35.24C280.921 35.24 280.185 35.144 279.481 34.952C278.777 34.728 278.425 34.44 278.425 34.088C278.425 33.704 278.505 32.44 278.665 30.296C278.857 28.12 278.953 26.488 278.953 25.4V22.616C278.953 14.424 280.409 9.208 283.321 6.968C283.993 6.456 284.681 6.2 285.385 6.2C285.705 6.2 286.025 6.552 286.345 7.256C286.665 7.96 286.825 8.872 286.825 9.992C286.825 12.744 286.361 15.32 285.433 17.72C284.505 20.12 283.561 21.96 282.601 23.24C282.569 24.04 282.553 25.288 282.553 26.984C282.681 26.792 283.353 25.704 284.569 23.72C285.785 21.736 286.809 20.28 287.641 19.352C288.505 18.424 289.273 17.96 289.945 17.96C290.617 17.96 291.209 18.184 291.721 18.632C292.265 19.08 292.537 19.64 292.537 20.312C292.537 21.72 292.377 23.8 292.057 26.552C291.769 29.272 291.625 31 291.625 31.736C291.625 32.44 291.721 32.792 291.913 32.792C292.457 32.76 293.209 32.088 294.169 30.776C295.129 29.432 296.073 27.72 297.001 25.64C297.961 23.56 298.537 22.52 298.729 22.52C298.953 22.52 299.065 22.648 299.065 22.904C299.065 23.8 298.601 25.224 297.673 27.176C295.145 32.552 293.017 35.24 291.289 35.24C290.041 35.24 289.097 34.984 288.457 34.472C288.233 34.248 288.121 33.672 288.121 32.744C288.121 31.784 288.201 30.248 288.361 28.136C288.553 25.992 288.649 24.392 288.649 23.336C288.649 22.28 288.457 21.752 288.073 21.752C287.721 21.752 286.761 22.856 285.193 25.064C283.625 27.24 282.793 28.632 282.697 29.24C282.505 30.36 282.409 31.416 282.409 32.408ZM285.529 11.048C285.529 9.704 285.353 9.032 285.001 9.032C284.425 9.032 283.865 10.808 283.321 14.36C283.033 16.248 282.825 18.44 282.697 20.936C284.585 17 285.529 13.704 285.529 11.048Z" fill="#343328"/>
</svg>
