<svg viewBox="0 0 16 16"  xmlns="http://www.w3.org/2000/svg" style="display:none">

	<symbol viewBox="0 0 16 16" id="timer">
		<path d="M8 2.5C6.81331 2.5 5.65328 2.85189 4.66658 3.51118C3.67989 4.17047 2.91085 5.10754 2.45673 6.2039C2.0026 7.30026 1.88378 8.50666 2.11529 9.67054C2.3468 10.8344 2.91825 11.9035 3.75736 12.7426C4.59648 13.5818 5.66558 14.1532 6.82946 14.3847C7.99335 14.6162 9.19975 14.4974 10.2961 14.0433C11.3925 13.5892 12.3295 12.8201 12.9888 11.8334C13.6481 10.8467 14 9.68669 14 8.5C13.9982 6.90926 13.3655 5.38419 12.2406 4.25937C11.1158 3.13454 9.59074 2.50182 8 2.5ZM8 13.5C7.0111 13.5 6.0444 13.2068 5.22215 12.6573C4.39991 12.1079 3.75904 11.327 3.38061 10.4134C3.00217 9.49979 2.90315 8.49445 3.09608 7.52455C3.289 6.55464 3.76521 5.66373 4.46447 4.96447C5.16373 4.2652 6.05465 3.789 7.02455 3.59607C7.99446 3.40315 8.99979 3.50216 9.91342 3.8806C10.8271 4.25904 11.6079 4.8999 12.1574 5.72215C12.7068 6.54439 13 7.51109 13 8.5C12.9985 9.82563 12.4713 11.0965 11.5339 12.0339C10.5965 12.9712 9.32563 13.4985 8 13.5ZM10.8538 5.64625C10.9002 5.69269 10.9371 5.74783 10.9623 5.80853C10.9874 5.86923 11.0004 5.93429 11.0004 6C11.0004 6.06571 10.9874 6.13077 10.9623 6.19147C10.9371 6.25217 10.9002 6.30731 10.8538 6.35375L8.35375 8.85375C8.3073 8.90021 8.25215 8.93705 8.19145 8.9622C8.13075 8.98734 8.0657 9.00028 8 9.00028C7.93431 9.00028 7.86925 8.98734 7.80855 8.9622C7.74786 8.93705 7.69271 8.90021 7.64625 8.85375C7.5998 8.80729 7.56295 8.75214 7.53781 8.69145C7.51266 8.63075 7.49972 8.5657 7.49972 8.5C7.49972 8.4343 7.51266 8.36925 7.53781 8.30855C7.56295 8.24786 7.5998 8.1927 7.64625 8.14625L10.1463 5.64625C10.1927 5.59976 10.2478 5.56288 10.3085 5.53772C10.3692 5.51256 10.4343 5.49961 10.5 5.49961C10.5657 5.49961 10.6308 5.51256 10.6915 5.53772C10.7522 5.56288 10.8073 5.59976 10.8538 5.64625ZM6 1C6 0.867392 6.05268 0.740215 6.14645 0.646447C6.24022 0.552678 6.36739 0.5 6.5 0.5H9.5C9.63261 0.5 9.75979 0.552678 9.85356 0.646447C9.94732 0.740215 10 0.867392 10 1C10 1.13261 9.94732 1.25979 9.85356 1.35355C9.75979 1.44732 9.63261 1.5 9.5 1.5H6.5C6.36739 1.5 6.24022 1.44732 6.14645 1.35355C6.05268 1.25979 6 1.13261 6 1Z" fill="currentColor"/>	
	</symbol>

	<symbol viewBox="0 0 16 16" id="fire">
		<path d="M11.4931 9.58377C11.3635 10.308 11.0151 10.975 10.4948 11.4952C9.9745 12.0154 9.30734 12.3637 8.58313 12.4931C8.55562 12.4975 8.52784 12.4998 8.5 12.5C8.37458 12.5 8.25375 12.4528 8.16148 12.3679C8.06921 12.2829 8.01223 12.1664 8.00185 12.0414C7.99146 11.9164 8.02843 11.7921 8.10542 11.6931C8.18242 11.5941 8.2938 11.5276 8.4175 11.5069C9.45312 11.3325 10.3319 10.4538 10.5075 9.41627C10.5297 9.28549 10.603 9.16888 10.7112 9.09211C10.8193 9.01534 10.9536 8.98468 11.0844 9.0069C11.2152 9.02911 11.3318 9.10236 11.4085 9.21055C11.4853 9.31873 11.516 9.45299 11.4937 9.58377H11.4931ZM13.5 9.00002C13.5 10.4587 12.9205 11.8577 11.8891 12.8891C10.8576 13.9206 9.45869 14.5 8 14.5C6.54131 14.5 5.14236 13.9206 4.11091 12.8891C3.07946 11.8577 2.5 10.4587 2.5 9.00002C2.5 7.25502 3.1875 5.47065 4.54125 3.6969C4.5841 3.64073 4.63837 3.59429 4.70047 3.56062C4.76258 3.52695 4.83112 3.50682 4.90157 3.50157C4.97201 3.49631 5.04278 3.50605 5.10919 3.53013C5.17561 3.55421 5.23616 3.59209 5.28687 3.64127L6.79437 5.1044L8.16938 1.32877C8.19685 1.25347 8.24202 1.18587 8.30108 1.13168C8.36015 1.07749 8.43138 1.0383 8.50877 1.01741C8.58615 0.996513 8.66743 0.994531 8.74574 1.01163C8.82406 1.02873 8.89711 1.0644 8.95875 1.11565C10.3256 2.25002 13.5 5.2844 13.5 9.00002ZM12.5 9.00002C12.5 6.1194 10.2631 3.63002 8.86187 2.3544L7.47 6.17127C7.44143 6.24966 7.3937 6.31966 7.33116 6.37489C7.26861 6.43011 7.19324 6.46881 7.11191 6.48745C7.03059 6.50609 6.94589 6.50408 6.86553 6.4816C6.78518 6.45913 6.71173 6.4169 6.65188 6.35877L5.00375 4.76002C4.00562 6.20065 3.5 7.62502 3.5 9.00002C3.5 10.1935 3.97411 11.3381 4.81802 12.182C5.66193 13.0259 6.80653 13.5 8 13.5C9.19347 13.5 10.3381 13.0259 11.182 12.182C12.0259 11.3381 12.5 10.1935 12.5 9.00002Z" fill="currentColor"/>
	</symbol>

	<symbol viewBox="0 0 16 16" id="teaf">
		<path d="M13.9656 2.50433C13.9585 2.382 13.9066 2.26656 13.82 2.17992C13.7334 2.09328 13.6179 2.04147 13.4956 2.03433C8.73747 1.75495 4.92622 3.18745 3.30122 5.87495C2.73799 6.79429 2.46042 7.86017 2.50372 8.93745C2.53935 9.93245 2.82935 10.9375 3.3656 11.9281L2.14622 13.1468C2.0524 13.2406 1.99969 13.3679 1.99969 13.5006C1.99969 13.6333 2.0524 13.7605 2.14622 13.8543C2.24004 13.9481 2.36729 14.0009 2.49997 14.0009C2.63265 14.0009 2.7599 13.9481 2.85372 13.8543L4.07247 12.635C5.06247 13.1706 6.0681 13.4606 7.06247 13.4962C7.13206 13.4987 7.20143 13.5 7.2706 13.5C8.27794 13.5026 9.26619 13.2252 10.125 12.6987C12.8125 11.0737 14.2456 7.26308 13.9656 2.50433ZM9.60935 11.8437C8.18747 12.705 6.50435 12.7187 4.81497 11.8918L10.3543 6.35308C10.4008 6.30662 10.4377 6.25147 10.4628 6.19077C10.4879 6.13008 10.5009 6.06502 10.5009 5.99933C10.5009 5.93363 10.4879 5.86857 10.4628 5.80788C10.4377 5.74718 10.4008 5.69203 10.3543 5.64558C10.3079 5.59912 10.2527 5.56227 10.192 5.53713C10.1313 5.51199 10.0663 5.49905 10.0006 5.49905C9.9349 5.49905 9.86985 5.51199 9.80915 5.53713C9.74845 5.56227 9.6933 5.59912 9.64685 5.64558L4.1081 11.1875C3.28372 9.49995 3.2956 7.81245 4.15622 6.39308C5.53685 4.1137 8.81872 2.86558 12.9881 3.01433C13.1375 7.18058 11.8887 10.4631 9.60935 11.8437Z" fill="currentColor"/>	
	</symbol>

	<symbol viewBox="0 0 16 16" id="list">
		<path d="M14 8C14 8.13261 13.9473 8.25979 13.8536 8.35355C13.7598 8.44732 13.6326 8.5 13.5 8.5H2.5C2.36739 8.5 2.24021 8.44732 2.14645 8.35355C2.05268 8.25979 2 8.13261 2 8C2 7.86739 2.05268 7.74021 2.14645 7.64645C2.24021 7.55268 2.36739 7.5 2.5 7.5H13.5C13.6326 7.5 13.7598 7.55268 13.8536 7.64645C13.9473 7.74021 14 7.86739 14 8ZM2.5 4.5H13.5C13.6326 4.5 13.7598 4.44732 13.8536 4.35355C13.9473 4.25979 14 4.13261 14 4C14 3.86739 13.9473 3.74021 13.8536 3.64645C13.7598 3.55268 13.6326 3.5 13.5 3.5H2.5C2.36739 3.5 2.24021 3.55268 2.14645 3.64645C2.05268 3.74021 2 3.86739 2 4C2 4.13261 2.05268 4.25979 2.14645 4.35355C2.24021 4.44732 2.36739 4.5 2.5 4.5ZM13.5 11.5H2.5C2.36739 11.5 2.24021 11.5527 2.14645 11.6464C2.05268 11.7402 2 11.8674 2 12C2 12.1326 2.05268 12.2598 2.14645 12.3536C2.24021 12.4473 2.36739 12.5 2.5 12.5H13.5C13.6326 12.5 13.7598 12.4473 13.8536 12.3536C13.9473 12.2598 14 12.1326 14 12C14 11.8674 13.9473 11.7402 13.8536 11.6464C13.7598 11.5527 13.6326 11.5 13.5 11.5Z" fill="currentColor"/>
	</symbol>

	<symbol viewBox="0 0 16 16" id="close">
		<path d="M12.2427 3.75741C12.3365 3.85118 12.3891 3.97835 12.3891 4.11096C12.3891 4.24357 12.3365 4.37075 12.2427 4.46452L8.70716 8.00005L12.2427 11.5356C12.3365 11.6294 12.3891 11.7565 12.3891 11.8891C12.3891 12.0217 12.3365 12.1489 12.2427 12.2427C12.1489 12.3365 12.0217 12.3891 11.8891 12.3891C11.7565 12.3891 11.6294 12.3365 11.5356 12.2427L8.00005 8.70716L4.46452 12.2427C4.37075 12.3365 4.24357 12.3891 4.11096 12.3891C3.97835 12.3891 3.85118 12.3365 3.75741 12.2427C3.66364 12.1489 3.61096 12.0217 3.61096 11.8891C3.61096 11.7565 3.66364 11.6294 3.75741 11.5356L7.29294 8.00005L3.75741 4.46452C3.66364 4.37075 3.61096 4.24357 3.61096 4.11096C3.61096 3.97835 3.66364 3.85118 3.75741 3.75741C3.85118 3.66364 3.97835 3.61096 4.11096 3.61096C4.24357 3.61096 4.37075 3.66364 4.46452 3.75741L8.00005 7.29294L11.5356 3.75741C11.6294 3.66364 11.7565 3.61096 11.8891 3.61096C12.0217 3.61096 12.1489 3.66364 12.2427 3.75741Z" fill="currentColor"/>
	</symbol>

	<symbol viewBox="0 0 16 16" id="minus">
		<path d="M11 8C11 8.13261 10.9473 8.25979 10.8536 8.35355C10.7598 8.44732 10.6326 8.5 10.5 8.5H5.5C5.36739 8.5 5.24022 8.44732 5.14645 8.35355C5.05268 8.25979 5 8.13261 5 8C5 7.86739 5.05268 7.74021 5.14645 7.64645C5.24022 7.55268 5.36739 7.5 5.5 7.5H10.5C10.6326 7.5 10.7598 7.55268 10.8536 7.64645C10.9473 7.74021 11 7.86739 11 8ZM14.5 8C14.5 9.28558 14.1188 10.5423 13.4046 11.6112C12.6903 12.6801 11.6752 13.5132 10.4874 14.0052C9.29973 14.4972 7.99279 14.6259 6.73192 14.3751C5.47104 14.1243 4.31285 13.5052 3.40381 12.5962C2.49477 11.6872 1.8757 10.529 1.6249 9.26809C1.37409 8.00721 1.50282 6.70028 1.99479 5.51256C2.48676 4.32484 3.31988 3.30968 4.3888 2.59545C5.45772 1.88122 6.71442 1.5 8 1.5C9.72335 1.50182 11.3756 2.18722 12.5942 3.40582C13.8128 4.62441 14.4982 6.27665 14.5 8ZM13.5 8C13.5 6.9122 13.1774 5.84883 12.5731 4.94436C11.9687 4.03989 11.1098 3.33494 10.1048 2.91866C9.09977 2.50238 7.9939 2.39346 6.92701 2.60568C5.86011 2.8179 4.8801 3.34172 4.11092 4.11091C3.34173 4.8801 2.8179 5.86011 2.60568 6.927C2.39347 7.9939 2.50238 9.09977 2.91867 10.1048C3.33495 11.1098 4.0399 11.9687 4.94437 12.5731C5.84884 13.1774 6.91221 13.5 8 13.5C9.45819 13.4983 10.8562 12.9184 11.8873 11.8873C12.9184 10.8562 13.4983 9.45818 13.5 8Z" fill="currentColor"/>
	</symbol>

	<symbol viewBox="0 0 16 16" id="plus">
		<path d="M8 1.5C6.71442 1.5 5.45772 1.88122 4.3888 2.59545C3.31988 3.30968 2.48676 4.32484 1.99479 5.51256C1.50282 6.70028 1.37409 8.00721 1.6249 9.26809C1.8757 10.529 2.49477 11.6872 3.40381 12.5962C4.31285 13.5052 5.47104 14.1243 6.73192 14.3751C7.99279 14.6259 9.29973 14.4972 10.4874 14.0052C11.6752 13.5132 12.6903 12.6801 13.4046 11.6112C14.1188 10.5423 14.5 9.28558 14.5 8C14.4982 6.27665 13.8128 4.62441 12.5942 3.40582C11.3756 2.18722 9.72335 1.50182 8 1.5ZM8 13.5C6.91221 13.5 5.84884 13.1774 4.94437 12.5731C4.0399 11.9687 3.33495 11.1098 2.91867 10.1048C2.50238 9.09977 2.39347 7.9939 2.60568 6.927C2.8179 5.86011 3.34173 4.8801 4.11092 4.11091C4.8801 3.34172 5.86011 2.8179 6.92701 2.60568C7.9939 2.39346 9.09977 2.50238 10.1048 2.91866C11.1098 3.33494 11.9687 4.03989 12.5731 4.94436C13.1774 5.84883 13.5 6.9122 13.5 8C13.4983 9.45818 12.9184 10.8562 11.8873 11.8873C10.8562 12.9184 9.45819 13.4983 8 13.5ZM11 8C11 8.13261 10.9473 8.25979 10.8536 8.35355C10.7598 8.44732 10.6326 8.5 10.5 8.5H8.5V10.5C8.5 10.6326 8.44732 10.7598 8.35356 10.8536C8.25979 10.9473 8.13261 11 8 11C7.86739 11 7.74022 10.9473 7.64645 10.8536C7.55268 10.7598 7.5 10.6326 7.5 10.5V8.5H5.5C5.36739 8.5 5.24022 8.44732 5.14645 8.35355C5.05268 8.25979 5 8.13261 5 8C5 7.86739 5.05268 7.74021 5.14645 7.64645C5.24022 7.55268 5.36739 7.5 5.5 7.5H7.5V5.5C7.5 5.36739 7.55268 5.24021 7.64645 5.14645C7.74022 5.05268 7.86739 5 8 5C8.13261 5 8.25979 5.05268 8.35356 5.14645C8.44732 5.24021 8.5 5.36739 8.5 5.5V7.5H10.5C10.6326 7.5 10.7598 7.55268 10.8536 7.64645C10.9473 7.74021 11 7.86739 11 8Z" fill="currentColor"/>
	</symbol>

	<symbol viewBox="0 0 16 16" id="arrow-next">
		<path d="M13.8538 8.35378L9.35375 12.8538C9.25993 12.9476 9.13268 13.0003 9 13.0003C8.86732 13.0003 8.74007 12.9476 8.64625 12.8538C8.55243 12.76 8.49972 12.6327 8.49972 12.5C8.49972 12.3674 8.55243 12.2401 8.64625 12.1463L12.2931 8.50003H2.5C2.36739 8.50003 2.24021 8.44736 2.14645 8.35359C2.05268 8.25982 2 8.13264 2 8.00003C2 7.86743 2.05268 7.74025 2.14645 7.64648C2.24021 7.55271 2.36739 7.50003 2.5 7.50003H12.2931L8.64625 3.85378C8.55243 3.75996 8.49972 3.63272 8.49972 3.50003C8.49972 3.36735 8.55243 3.2401 8.64625 3.14628C8.74007 3.05246 8.86732 2.99976 9 2.99976C9.13268 2.99976 9.25993 3.05246 9.35375 3.14628L13.8538 7.64628C13.9002 7.69272 13.9371 7.74786 13.9623 7.80856C13.9874 7.86926 14.0004 7.93433 14.0004 8.00003C14.0004 8.06574 13.9874 8.13081 13.9623 8.1915C13.9371 8.2522 13.9002 8.30735 13.8538 8.35378Z" fill="currentColor"/>
	</symbol>

	<symbol viewBox="0 0 16 16" id="arrow-prev">
		<path d="M14 8.00003C14 8.13264 13.9473 8.25982 13.8536 8.35359C13.7598 8.44736 13.6326 8.50003 13.5 8.50003H3.7069L7.35378 12.1463C7.40023 12.1927 7.43708 12.2479 7.46222 12.3086C7.48737 12.3693 7.50031 12.4343 7.50031 12.5C7.50031 12.5657 7.48737 12.6308 7.46222 12.6915C7.43708 12.7522 7.40023 12.8073 7.35378 12.8538C7.30732 12.9002 7.25217 12.9371 7.19148 12.9622C7.13078 12.9874 7.06572 13.0003 7.00003 13.0003C6.93433 13.0003 6.86928 12.9874 6.80858 12.9622C6.74788 12.9371 6.69273 12.9002 6.64628 12.8538L2.14628 8.35378C2.09979 8.30735 2.06291 8.2522 2.03775 8.1915C2.01259 8.13081 1.99963 8.06574 1.99963 8.00003C1.99963 7.93433 2.01259 7.86926 2.03775 7.80856C2.06291 7.74786 2.09979 7.69272 2.14628 7.64628L6.64628 3.14628C6.7401 3.05246 6.86735 2.99976 7.00003 2.99976C7.13271 2.99976 7.25996 3.05246 7.35378 3.14628C7.4476 3.2401 7.50031 3.36735 7.50031 3.50003C7.50031 3.63272 7.4476 3.75996 7.35378 3.85378L3.7069 7.50003H13.5C13.6326 7.50003 13.7598 7.55271 13.8536 7.64648C13.9473 7.74025 14 7.86743 14 8.00003Z" fill="currentColor"/>
	</symbol>

	<symbol viewBox="0 0 16 16" id="arrow-prev">
		<path d="M14 8.00003C14 8.13264 13.9473 8.25982 13.8536 8.35359C13.7598 8.44736 13.6326 8.50003 13.5 8.50003H3.7069L7.35378 12.1463C7.40023 12.1927 7.43708 12.2479 7.46222 12.3086C7.48737 12.3693 7.50031 12.4343 7.50031 12.5C7.50031 12.5657 7.48737 12.6308 7.46222 12.6915C7.43708 12.7522 7.40023 12.8073 7.35378 12.8538C7.30732 12.9002 7.25217 12.9371 7.19148 12.9622C7.13078 12.9874 7.06572 13.0003 7.00003 13.0003C6.93433 13.0003 6.86928 12.9874 6.80858 12.9622C6.74788 12.9371 6.69273 12.9002 6.64628 12.8538L2.14628 8.35378C2.09979 8.30735 2.06291 8.2522 2.03775 8.1915C2.01259 8.13081 1.99963 8.06574 1.99963 8.00003C1.99963 7.93433 2.01259 7.86926 2.03775 7.80856C2.06291 7.74786 2.09979 7.69272 2.14628 7.64628L6.64628 3.14628C6.7401 3.05246 6.86735 2.99976 7.00003 2.99976C7.13271 2.99976 7.25996 3.05246 7.35378 3.14628C7.4476 3.2401 7.50031 3.36735 7.50031 3.50003C7.50031 3.63272 7.4476 3.75996 7.35378 3.85378L3.7069 7.50003H13.5C13.6326 7.50003 13.7598 7.55271 13.8536 7.64648C13.9473 7.74025 14 7.86743 14 8.00003Z" fill="currentColor"/>
	</symbol>

	<symbol viewBox="0 0 16 16" id="search">
		<path d="M14.3538 13.6463L11.2244 10.5175C12.1314 9.42859 12.5837 8.03189 12.4872 6.61798C12.3906 5.20407 11.7527 3.88181 10.7061 2.92625C9.65951 1.9707 8.2848 1.45543 6.86796 1.48763C5.45113 1.51983 4.10125 2.09702 3.09913 3.09913C2.09702 4.10125 1.51983 5.45113 1.48763 6.86796C1.45543 8.2848 1.9707 9.65951 2.92625 10.7061C3.88181 11.7527 5.20407 12.3906 6.61798 12.4872C8.03189 12.5837 9.42859 12.1314 10.5175 11.2244L13.6463 14.3538C13.6927 14.4002 13.7479 14.4371 13.8086 14.4622C13.8693 14.4874 13.9343 14.5003 14 14.5003C14.0657 14.5003 14.1308 14.4874 14.1915 14.4622C14.2522 14.4371 14.3073 14.4002 14.3538 14.3538C14.4002 14.3073 14.4371 14.2522 14.4622 14.1915C14.4874 14.1308 14.5003 14.0657 14.5003 14C14.5003 13.9343 14.4874 13.8693 14.4622 13.8086C14.4371 13.7479 14.4002 13.6927 14.3538 13.6463ZM2.50002 7.00002C2.50002 6.11 2.76394 5.23998 3.25841 4.49995C3.75287 3.75993 4.45568 3.18316 5.27795 2.84256C6.10021 2.50197 7.00501 2.41285 7.87793 2.58649C8.75084 2.76012 9.55266 3.1887 10.182 3.81804C10.8113 4.44738 11.2399 5.2492 11.4136 6.12211C11.5872 6.99503 11.4981 7.89983 11.1575 8.7221C10.8169 9.54436 10.2401 10.2472 9.50009 10.7416C8.76007 11.2361 7.89004 11.5 7.00002 11.5C5.80695 11.4987 4.66313 11.0242 3.8195 10.1805C2.97587 9.33691 2.50134 8.19309 2.50002 7.00002Z" fill="currentColor"/>
	</symbol>

	<symbol viewBox="0 0 16 16" id="star-filled">
		<path d="M14.6431 7.17815L11.8306 9.60502L12.6875 13.2344C12.7347 13.4314 12.7226 13.638 12.6525 13.8281C12.5824 14.0182 12.4575 14.1833 12.2937 14.3025C12.1298 14.4217 11.9343 14.4896 11.7319 14.4977C11.5294 14.5059 11.3291 14.4538 11.1562 14.3481L7.99996 12.4056L4.84184 14.3481C4.66898 14.4532 4.4689 14.5048 4.2668 14.4963C4.06469 14.4879 3.8696 14.4199 3.70609 14.3008C3.54257 14.1817 3.41795 14.0169 3.3479 13.8272C3.27786 13.6374 3.26553 13.4312 3.31246 13.2344L4.17246 9.60502L1.35996 7.17815C1.20702 7.04596 1.09641 6.87166 1.04195 6.67699C0.987486 6.48232 0.99158 6.27592 1.05372 6.08356C1.11586 5.89121 1.23329 5.72142 1.39135 5.59541C1.54941 5.4694 1.7411 5.39274 1.94246 5.37502L5.62996 5.07752L7.05246 1.63502C7.12946 1.44741 7.26051 1.28693 7.42894 1.17398C7.59738 1.06104 7.7956 1.00073 7.9984 1.00073C8.2012 1.00073 8.39942 1.06104 8.56785 1.17398C8.73629 1.28693 8.86734 1.44741 8.94434 1.63502L10.3662 5.07752L14.0537 5.37502C14.2555 5.39208 14.4477 5.46831 14.6064 5.59415C14.765 5.71999 14.883 5.88984 14.9455 6.08243C15.008 6.27502 15.0123 6.48178 14.9579 6.6768C14.9034 6.87182 14.7926 7.04644 14.6393 7.17877L14.6431 7.17815Z" fill="currentColor"/>
	</symbol>

	<symbol viewBox="0 0 16 16" id="star-half-filled">
		<path d="M14.9488 6.07879C14.8863 5.88661 14.7683 5.71724 14.6097 5.59201C14.4511 5.46677 14.259 5.39128 14.0575 5.37504L10.37 5.07754L8.94629 1.63441C8.8693 1.4468 8.73825 1.28632 8.56981 1.17337C8.40137 1.06043 8.20315 1.00012 8.00035 1.00012C7.79756 1.00012 7.59934 1.06043 7.4309 1.17337C7.26246 1.28632 7.13141 1.4468 7.05442 1.63441L5.63192 5.07691L1.94254 5.37504C1.74078 5.3921 1.54854 5.46833 1.3899 5.59416C1.23127 5.72 1.1133 5.88986 1.05077 6.08244C0.988239 6.27503 0.983936 6.48179 1.0384 6.67682C1.09286 6.87184 1.20366 7.04645 1.35692 7.17879L4.16942 9.60566L3.31254 13.2344C3.26526 13.4314 3.27744 13.638 3.34753 13.8282C3.41762 14.0183 3.54248 14.1833 3.70633 14.3025C3.87019 14.4217 4.06569 14.4896 4.26814 14.4978C4.47059 14.5059 4.67091 14.4538 4.84379 14.3482L8.00004 12.4057L11.1582 14.3482C11.331 14.4532 11.5311 14.5048 11.7332 14.4964C11.9353 14.4879 12.1304 14.4199 12.2939 14.3008C12.4574 14.1817 12.5821 14.0169 12.6521 13.8272C12.7221 13.6374 12.7345 13.4312 12.6875 13.2344L11.8275 9.60503L14.64 7.17816C14.7945 7.04605 14.9064 6.87106 14.9613 6.67535C15.0163 6.47964 15.0119 6.27202 14.9488 6.07879ZM13.99 6.42066L10.9463 9.04566C10.8769 9.10549 10.8252 9.18324 10.797 9.27043C10.7688 9.35762 10.7651 9.45088 10.7863 9.54004L11.7163 13.465C11.7187 13.4704 11.7189 13.4766 11.717 13.4822C11.715 13.4877 11.7109 13.4923 11.7057 13.495C11.6944 13.5038 11.6913 13.5019 11.6819 13.495L8.26192 11.3919C8.18306 11.3438 8.09241 11.3185 8.00004 11.3188V2.00004C8.01504 2.00004 8.01692 2.00504 8.02192 2.01629L9.56254 5.74129C9.59771 5.82643 9.65572 5.9002 9.73016 5.95447C9.80461 6.00873 9.89259 6.04137 9.98442 6.04879L13.9788 6.37129C13.9888 6.37129 13.9944 6.37129 14 6.38941C14.0057 6.40754 14 6.41441 13.99 6.42066Z" fill="currentColor"/>
	</symbol>

	<symbol viewBox="0 0 16 16" id="info">
		<path d="M8 1.5C6.71442 1.5 5.45772 1.88122 4.3888 2.59545C3.31988 3.30968 2.48676 4.32484 1.99479 5.51256C1.50282 6.70028 1.37409 8.00721 1.6249 9.26809C1.8757 10.529 2.49477 11.6872 3.40381 12.5962C4.31285 13.5052 5.47104 14.1243 6.73192 14.3751C7.99279 14.6259 9.29973 14.4972 10.4874 14.0052C11.6752 13.5132 12.6903 12.6801 13.4046 11.6112C14.1188 10.5423 14.5 9.28558 14.5 8C14.4982 6.27665 13.8128 4.62441 12.5942 3.40582C11.3756 2.18722 9.72335 1.50182 8 1.5ZM8 13.5C6.91221 13.5 5.84884 13.1774 4.94437 12.5731C4.0399 11.9687 3.33495 11.1098 2.91867 10.1048C2.50238 9.09977 2.39347 7.9939 2.60568 6.927C2.8179 5.86011 3.34173 4.8801 4.11092 4.11091C4.8801 3.34172 5.86011 2.8179 6.92701 2.60568C7.9939 2.39346 9.09977 2.50238 10.1048 2.91866C11.1098 3.33494 11.9687 4.03989 12.5731 4.94436C13.1774 5.84883 13.5 6.9122 13.5 8C13.4983 9.45818 12.9184 10.8562 11.8873 11.8873C10.8562 12.9184 9.45819 13.4983 8 13.5ZM9 11C9 11.1326 8.94732 11.2598 8.85356 11.3536C8.75979 11.4473 8.63261 11.5 8.5 11.5C8.23479 11.5 7.98043 11.3946 7.7929 11.2071C7.60536 11.0196 7.5 10.7652 7.5 10.5V8C7.36739 8 7.24022 7.94732 7.14645 7.85355C7.05268 7.75979 7 7.63261 7 7.5C7 7.36739 7.05268 7.24021 7.14645 7.14645C7.24022 7.05268 7.36739 7 7.5 7C7.76522 7 8.01957 7.10536 8.20711 7.29289C8.39465 7.48043 8.5 7.73478 8.5 8V10.5C8.63261 10.5 8.75979 10.5527 8.85356 10.6464C8.94732 10.7402 9 10.8674 9 11ZM7 5.25C7 5.10166 7.04399 4.95666 7.1264 4.83332C7.20881 4.70999 7.32595 4.61386 7.46299 4.55709C7.60003 4.50032 7.75083 4.48547 7.89632 4.51441C8.04181 4.54335 8.17544 4.61478 8.28033 4.71967C8.38522 4.82456 8.45665 4.9582 8.48559 5.10368C8.51453 5.24917 8.49968 5.39997 8.44291 5.53701C8.38615 5.67406 8.29002 5.79119 8.16668 5.8736C8.04334 5.95601 7.89834 6 7.75 6C7.55109 6 7.36032 5.92098 7.21967 5.78033C7.07902 5.63968 7 5.44891 7 5.25Z" fill="currentColor"/>
	</symbol>

	<symbol viewBox="0 0 16 16" id="econom">
		<path d="M12 7.25C12 7.39834 11.956 7.54334 11.8736 7.66668C11.7912 7.79001 11.6741 7.88614 11.537 7.94291C11.4 7.99968 11.2492 8.01453 11.1037 7.98559C10.9582 7.95665 10.8246 7.88522 10.7197 7.78033C10.6148 7.67544 10.5434 7.5418 10.5144 7.39632C10.4855 7.25083 10.5003 7.10003 10.5571 6.96299C10.6139 6.82594 10.71 6.70881 10.8333 6.6264C10.9567 6.54399 11.1017 6.5 11.25 6.5C11.4489 6.5 11.6397 6.57902 11.7803 6.71967C11.921 6.86032 12 7.05109 12 7.25ZM9.5 4H7C6.86739 4 6.74021 4.05268 6.64645 4.14645C6.55268 4.24021 6.5 4.36739 6.5 4.5C6.5 4.63261 6.55268 4.75979 6.64645 4.85355C6.74021 4.94732 6.86739 5 7 5H9.5C9.63261 5 9.75979 4.94732 9.85355 4.85355C9.94732 4.75979 10 4.63261 10 4.5C10 4.36739 9.94732 4.24021 9.85355 4.14645C9.75979 4.05268 9.63261 4 9.5 4ZM15.5 7V9C15.5 9.39782 15.342 9.77936 15.0607 10.0607C14.7794 10.342 14.3978 10.5 14 10.5H13.8525L12.8394 13.3363C12.77 13.5305 12.6423 13.6986 12.4736 13.8174C12.305 13.9362 12.1038 14 11.8975 14H11.1025C10.8962 14 10.695 13.9362 10.5264 13.8174C10.3577 13.6986 10.23 13.5305 10.1606 13.3363L10.0406 13H6.45937L6.33938 13.3363C6.27001 13.5305 6.14227 13.6986 5.97365 13.8174C5.80503 13.9362 5.60378 14 5.3975 14H4.6025C4.39622 14 4.19497 13.9362 4.02635 13.8174C3.85773 13.6986 3.72999 13.5305 3.66062 13.3363L2.875 11.1388C2.12765 10.2928 1.65967 9.23685 1.535 8.115C1.37364 8.19975 1.23851 8.327 1.14422 8.48297C1.04993 8.63895 1.00006 8.81774 1 9C1 9.13261 0.947322 9.25979 0.853553 9.35355C0.759785 9.44732 0.632608 9.5 0.5 9.5C0.367392 9.5 0.240215 9.44732 0.146447 9.35355C0.0526784 9.25979 0 9.13261 0 9C0.000763986 8.5541 0.150514 8.12125 0.425459 7.77021C0.700403 7.41917 1.08477 7.17007 1.5175 7.0625C1.6292 5.68458 2.25501 4.39906 3.27068 3.4612C4.28634 2.52335 5.61756 2.00176 7 2H13.5C13.6326 2 13.7598 2.05268 13.8536 2.14645C13.9473 2.24021 14 2.36739 14 2.5C14 2.63261 13.9473 2.75979 13.8536 2.85355C13.7598 2.94732 13.6326 3 13.5 3H12.1631C12.9929 3.58219 13.6455 4.38252 14.0487 5.3125C14.0756 5.375 14.1019 5.4375 14.1269 5.5C14.5023 5.53187 14.852 5.70386 15.1064 5.98179C15.3608 6.25972 15.5014 6.62321 15.5 7ZM14.5 7C14.5 6.86739 14.4473 6.74021 14.3536 6.64645C14.2598 6.55268 14.1326 6.5 14 6.5H13.7712C13.6648 6.50011 13.561 6.46622 13.4751 6.40327C13.3892 6.34032 13.3257 6.25158 13.2937 6.15C13.0073 5.23583 12.4362 4.43714 11.6637 3.87047C10.8913 3.30379 9.958 2.9988 9 3H7C6.1267 2.99995 5.27225 3.25402 4.54085 3.73121C3.80946 4.20841 3.23271 4.88811 2.88095 5.68744C2.52919 6.48676 2.41762 7.37117 2.55984 8.23282C2.70205 9.09446 3.09191 9.89611 3.68187 10.54C3.72699 10.5891 3.76184 10.6466 3.78437 10.7094L4.6025 13H5.3975L5.63625 12.3319C5.67091 12.2348 5.73474 12.1508 5.81899 12.0914C5.90323 12.032 6.00379 12.0001 6.10687 12H10.3931C10.4962 12.0001 10.5968 12.032 10.681 12.0914C10.7653 12.1508 10.8291 12.2348 10.8638 12.3319L11.1025 13H11.8975L13.0294 9.83187C13.064 9.73479 13.1279 9.65079 13.2121 9.59138C13.2964 9.53197 13.3969 9.50005 13.5 9.5H14C14.1326 9.5 14.2598 9.44732 14.3536 9.35355C14.4473 9.25979 14.5 9.13261 14.5 9V7Z" fill="currentColor"/>
	</symbol>

	<symbol viewBox="0 0 16 16" id="menu">
		<path d="M10.5 9.50003C10.5 9.63264 10.4473 9.75982 10.3536 9.85359C10.2598 9.94735 10.1326 10 10 10H6C5.86739 10 5.74021 9.94735 5.64645 9.85359C5.55268 9.75982 5.5 9.63264 5.5 9.50003C5.5 9.36742 5.55268 9.24025 5.64645 9.14648C5.74021 9.05271 5.86739 9.00003 6 9.00003H10C10.1326 9.00003 10.2598 9.05271 10.3536 9.14648C10.4473 9.24025 10.5 9.36742 10.5 9.50003ZM10 7.00003H6C5.86739 7.00003 5.74021 7.05271 5.64645 7.14648C5.55268 7.24025 5.5 7.36742 5.5 7.50003C5.5 7.63264 5.55268 7.75982 5.64645 7.85358C5.74021 7.94735 5.86739 8.00003 6 8.00003H10C10.1326 8.00003 10.2598 7.94735 10.3536 7.85358C10.4473 7.75982 10.5 7.63264 10.5 7.50003C10.5 7.36742 10.4473 7.24025 10.3536 7.14648C10.2598 7.05271 10.1326 7.00003 10 7.00003ZM13.5 3.00003V13.5C13.5 13.7652 13.3946 14.0196 13.2071 14.2071C13.0196 14.3947 12.7652 14.5 12.5 14.5H3.5C3.23478 14.5 2.98043 14.3947 2.79289 14.2071C2.60536 14.0196 2.5 13.7652 2.5 13.5V3.00003C2.5 2.73482 2.60536 2.48046 2.79289 2.29292C2.98043 2.10539 3.23478 2.00003 3.5 2.00003H5.76625C6.04719 1.68548 6.39139 1.43382 6.77633 1.26151C7.16127 1.08919 7.57826 1.00012 8 1.00012C8.42174 1.00012 8.83873 1.08919 9.22367 1.26151C9.6086 1.43382 9.95281 1.68548 10.2338 2.00003H12.5C12.7652 2.00003 13.0196 2.10539 13.2071 2.29292C13.3946 2.48046 13.5 2.73482 13.5 3.00003ZM6 4.00003H10C10 3.4696 9.78929 2.96089 9.41421 2.58582C9.03914 2.21075 8.53043 2.00003 8 2.00003C7.46957 2.00003 6.96086 2.21075 6.58579 2.58582C6.21071 2.96089 6 3.4696 6 4.00003ZM12.5 3.00003H10.8281C10.9419 3.32116 11 3.65935 11 4.00003V4.50003C11 4.63264 10.9473 4.75982 10.8536 4.85358C10.7598 4.94735 10.6326 5.00003 10.5 5.00003H5.5C5.36739 5.00003 5.24021 4.94735 5.14645 4.85358C5.05268 4.75982 5 4.63264 5 4.50003V4.00003C4.99997 3.65935 5.0581 3.32116 5.17188 3.00003H3.5V13.5H12.5V3.00003Z" fill="currentColor"/>
	</symbol>

	<symbol viewBox="0 0 16 16" id="house">
		<path d="M13.7069 6.79254L8.70688 1.79254C8.51936 1.60514 8.26511 1.49988 8.00001 1.49988C7.7349 1.49988 7.48065 1.60514 7.29313 1.79254L2.29313 6.79254C2.19982 6.88516 2.12586 6.9954 2.07553 7.11686C2.02521 7.23832 1.99954 7.36857 2.00001 7.50004V13.5C2.00001 13.6326 2.05268 13.7598 2.14645 13.8536C2.24022 13.9474 2.3674 14 2.50001 14H6.50001C6.63261 14 6.75979 13.9474 6.85356 13.8536C6.94733 13.7598 7.00001 13.6326 7.00001 13.5V10H9.00001V13.5C9.00001 13.6326 9.05268 13.7598 9.14645 13.8536C9.24022 13.9474 9.3674 14 9.50001 14H13.5C13.6326 14 13.7598 13.9474 13.8536 13.8536C13.9473 13.7598 14 13.6326 14 13.5V7.50004C14.0005 7.36857 13.9748 7.23832 13.9245 7.11686C13.8742 6.9954 13.8002 6.88516 13.7069 6.79254ZM13 13H10V9.50004C10 9.36743 9.94733 9.24025 9.85356 9.14649C9.75979 9.05272 9.63261 9.00004 9.50001 9.00004H6.50001C6.3674 9.00004 6.24022 9.05272 6.14645 9.14649C6.05268 9.24025 6.00001 9.36743 6.00001 9.50004V13H3.00001V7.50004L8.00001 2.50004L13 7.50004V13Z" fill="currentColor"/>
	</symbol>

	<symbol viewBox="0 0 16 16" id="vegan">
		<path d="M15.4769 2.99316C15.4698 2.87084 15.418 2.7554 15.3313 2.66876C15.2447 2.58212 15.1293 2.53031 15.0069 2.52316C11.7719 2.33566 9.17443 3.31941 8.05818 5.16191C7.32068 6.38004 7.32193 7.85941 8.04818 9.27066C7.63474 9.76272 7.33263 10.3384 7.16256 10.9582L6.14568 9.93754C6.63443 8.91691 6.61568 7.85316 6.08318 6.96941C5.25818 5.60754 3.35381 4.87754 0.989434 5.01629C0.867113 5.02343 0.751672 5.07524 0.66503 5.16188C0.578389 5.24853 0.526578 5.36397 0.519434 5.48629C0.380059 7.85066 1.11068 9.75504 2.47256 10.58C2.92195 10.8547 3.4384 11 3.96506 11C4.47624 10.9937 4.97947 10.8726 5.43756 10.6457L7.00006 12.2082V14C7.00006 14.1326 7.05274 14.2598 7.14651 14.3536C7.24027 14.4474 7.36745 14.5 7.50006 14.5C7.63267 14.5 7.75984 14.4474 7.85361 14.3536C7.94738 14.2598 8.00006 14.1326 8.00006 14V12.1569C7.99778 11.3615 8.26848 10.5893 8.76693 9.96941C9.41002 10.3055 10.1232 10.4854 10.8488 10.4944C11.5503 10.4967 12.2388 10.305 12.8382 9.94066C14.6807 8.82566 15.6669 6.22816 15.4769 2.99316ZM2.98818 9.72504C2.02943 9.14441 1.48693 7.77004 1.50006 6.00004C3.27006 5.98504 4.64443 6.52941 5.22506 7.48816C5.52818 7.98816 5.57756 8.57129 5.37881 9.17191L3.85318 7.64629C3.75865 7.55648 3.63278 7.50715 3.5024 7.50882C3.37202 7.51049 3.24745 7.56302 3.15525 7.65522C3.06304 7.74742 3.01051 7.872 3.00884 8.00238C3.00717 8.13276 3.0565 8.25863 3.14631 8.35316L4.67193 9.87879C4.07131 10.0775 3.48881 10.0282 2.98818 9.72504ZM12.3201 9.08629C11.4826 9.59316 10.4982 9.63191 9.49818 9.21129L12.8538 5.85504C12.9436 5.76051 12.9929 5.63463 12.9913 5.50425C12.9896 5.37387 12.9371 5.2493 12.8449 5.1571C12.7527 5.0649 12.6281 5.01236 12.4977 5.01069C12.3673 5.00902 12.2415 5.05835 12.1469 5.14816L8.79068 8.50004C8.36818 7.50004 8.40631 6.51504 8.91568 5.67816C9.78693 4.24066 11.8532 3.43941 14.4988 3.50129C14.5588 6.14629 13.7588 8.21504 12.3201 9.08629Z" fill="currentColor"/>
	</symbol>

	<symbol viewBox="0 0 16 16" id="stew">
		<path d="M13.5 2H9.5C9.42343 1.99999 9.34788 2.01757 9.27918 2.05138C9.21048 2.08519 9.15046 2.13433 9.10375 2.195L5.10375 7.39563L4.5 6.79313C4.40713 6.70015 4.29684 6.62639 4.17544 6.57607C4.05404 6.52574 3.92392 6.49984 3.7925 6.49984C3.66109 6.49984 3.53096 6.52574 3.40956 6.57607C3.28816 6.62639 3.17787 6.70015 3.085 6.79313L2.29188 7.58687C2.19899 7.67974 2.12531 7.78999 2.07504 7.91133C2.02477 8.03267 1.9989 8.16272 1.9989 8.29406C1.9989 8.4254 2.02477 8.55546 2.07504 8.6768C2.12531 8.79814 2.19899 8.90839 2.29188 9.00125L3.54188 10.2513L1.79188 12.0013C1.69899 12.0941 1.62531 12.2044 1.57504 12.3257C1.52477 12.447 1.4989 12.5771 1.4989 12.7084C1.4989 12.8398 1.52477 12.9698 1.57504 13.0912C1.62531 13.2125 1.69899 13.3228 1.79188 13.4156L2.585 14.2081C2.77252 14.3955 3.02677 14.5008 3.29188 14.5008C3.55698 14.5008 3.81123 14.3955 3.99875 14.2081L5.74875 12.4581L6.99875 13.7081C7.09162 13.8011 7.20191 13.8749 7.32331 13.9252C7.44471 13.9755 7.57484 14.0014 7.70625 14.0014C7.83767 14.0014 7.96779 13.9755 8.08919 13.9252C8.21059 13.8749 8.32088 13.8011 8.41375 13.7081L9.20688 12.9144C9.29976 12.8215 9.37344 12.7113 9.42371 12.5899C9.47398 12.4686 9.49985 12.3385 9.49985 12.2072C9.49985 12.0758 9.47398 11.9458 9.42371 11.8245C9.37344 11.7031 9.29976 11.5929 9.20688 11.5L8.60438 10.8975L13.805 6.8975C13.8658 6.85066 13.9151 6.79044 13.9489 6.72151C13.9827 6.65258 14.0002 6.57678 14 6.5V2.5C14 2.36739 13.9473 2.24021 13.8536 2.14645C13.7598 2.05268 13.6326 2 13.5 2ZM3.29313 13.5L2.5 12.7075L4.25 10.9575L5.0425 11.75L3.29313 13.5ZM7.70625 13L3 8.29438L3.79375 7.5L8.5 12.2069L7.70625 13ZM13 6.25375L7.89125 10.1838L7.2075 9.5L10.3538 6.35375C10.4475 6.25993 10.5001 6.13271 10.5001 6.00009C10.5 5.86747 10.4473 5.7403 10.3534 5.64656C10.2596 5.55283 10.1324 5.5002 9.99978 5.50026C9.86716 5.50031 9.73999 5.55305 9.64625 5.64687L6.5 8.7925L5.81688 8.10875L9.74625 3H13V6.25375Z" fill="currentColor"/>
	</symbol>

	<symbol viewBox="0 0 16 16" id="classic">
		<path d="M14 7.00001H2C1.86739 7.00001 1.74021 7.05269 1.64645 7.14645C1.55268 7.24022 1.5 7.3674 1.5 7.50001C1.5022 8.68908 1.82943 9.85493 2.44632 10.8715C3.06321 11.888 3.94627 12.7166 5 13.2675V13.5C5 13.7652 5.10536 14.0196 5.29289 14.2071C5.48043 14.3946 5.73478 14.5 6 14.5H10C10.2652 14.5 10.5196 14.3946 10.7071 14.2071C10.8946 14.0196 11 13.7652 11 13.5V13.2675C12.0537 12.7166 12.9368 11.888 13.5537 10.8715C14.1706 9.85493 14.4978 8.68908 14.5 7.50001C14.5 7.3674 14.4473 7.24022 14.3536 7.14645C14.2598 7.05269 14.1326 7.00001 14 7.00001ZM10.2913 12.5C10.2043 12.5399 10.1307 12.604 10.0791 12.6845C10.0274 12.7651 9.99999 12.8587 10 12.9544V13.5H6V12.9556C6.00025 12.8598 5.97292 12.7658 5.92128 12.685C5.86965 12.6043 5.79587 12.54 5.70875 12.5C4.82945 12.0954 4.07205 11.4666 3.51257 10.6767C2.95309 9.88687 2.61121 8.96375 2.52125 8.00001H13.4769C13.3871 8.96355 13.0455 9.88655 12.4864 10.6764C11.9272 11.4662 11.1702 12.0951 10.2913 12.5ZM5.11062 3.43751C5.445 3.02126 5.5275 2.74001 5.49312 2.61626C5.46688 2.52313 5.3425 2.47501 5.34125 2.47501C5.22807 2.43781 5.13189 2.36143 5.07003 2.25961C5.00818 2.15779 4.98471 2.03723 5.00385 1.91965C5.023 1.80206 5.0835 1.69518 5.17446 1.61824C5.26542 1.5413 5.38087 1.49938 5.5 1.50001C5.55043 1.50006 5.60056 1.50764 5.64875 1.52251C5.71125 1.54188 6.26813 1.73063 6.44812 2.32001C6.60187 2.82438 6.41375 3.41063 5.88938 4.06313C5.555 4.47938 5.4725 4.76063 5.50688 4.88438C5.53312 4.97751 5.655 5.02438 5.65625 5.02501C5.76922 5.06214 5.86526 5.13832 5.92713 5.23987C5.98899 5.34143 6.01264 5.46171 5.99383 5.57913C5.97501 5.69654 5.91496 5.80341 5.82445 5.88055C5.73395 5.95768 5.61892 6.00004 5.5 6.00001C5.44957 5.99996 5.39944 5.99237 5.35125 5.97751C5.28875 5.95813 4.73188 5.76938 4.55188 5.18001C4.39813 4.67563 4.58625 4.08938 5.11062 3.43751ZM7.61062 3.43751C7.945 3.02126 8.0275 2.74001 7.99312 2.61626C7.96688 2.52313 7.8425 2.47501 7.84125 2.47501C7.72807 2.43781 7.63189 2.36143 7.57003 2.25961C7.50818 2.15779 7.48471 2.03723 7.50385 1.91965C7.523 1.80206 7.5835 1.69518 7.67446 1.61824C7.76542 1.5413 7.88087 1.49938 8 1.50001C8.05043 1.50006 8.10056 1.50764 8.14875 1.52251C8.21125 1.54188 8.76813 1.73063 8.94812 2.32001C9.10187 2.82438 8.91375 3.41063 8.38937 4.06313C8.055 4.47938 7.9725 4.76063 8.00688 4.88438C8.03312 4.97751 8.155 5.02438 8.15625 5.02501C8.26922 5.06214 8.36526 5.13832 8.42713 5.23987C8.489 5.34143 8.51264 5.46171 8.49383 5.57913C8.47501 5.69654 8.41496 5.80341 8.32445 5.88055C8.23395 5.95768 8.11892 6.00004 8 6.00001C7.94957 5.99996 7.89944 5.99237 7.85125 5.97751C7.78875 5.95813 7.23187 5.76938 7.05188 5.18001C6.89813 4.67563 7.08625 4.08938 7.61062 3.43751ZM10.1106 3.43751C10.445 3.02126 10.5275 2.74001 10.4931 2.61626C10.4669 2.52313 10.3425 2.47501 10.3413 2.47501C10.2281 2.43781 10.1319 2.36143 10.07 2.25961C10.0082 2.15779 9.98471 2.03723 10.0039 1.91965C10.023 1.80206 10.0835 1.69518 10.1745 1.61824C10.2654 1.5413 10.3809 1.49938 10.5 1.50001C10.5504 1.50006 10.6006 1.50764 10.6488 1.52251C10.7113 1.54188 11.2681 1.73063 11.4481 2.32001C11.6019 2.82438 11.4137 3.41063 10.8894 4.06313C10.555 4.47938 10.4725 4.76063 10.5069 4.88438C10.5331 4.97751 10.655 5.02438 10.6562 5.02501C10.7692 5.06214 10.8653 5.13832 10.9271 5.23987C10.989 5.34143 11.0126 5.46171 10.9938 5.57913C10.975 5.69654 10.915 5.80341 10.8245 5.88055C10.7339 5.95768 10.6189 6.00004 10.5 6.00001C10.4496 5.99996 10.3994 5.99237 10.3512 5.97751C10.2887 5.95813 9.73188 5.76938 9.55188 5.18001C9.39813 4.67563 9.58625 4.08938 10.1106 3.43751Z" fill="currentColor"/>
	</symbol>

	<symbol viewBox="0 0 16 16" id="cake">
		<path d="M14.5 6.99996C14.5 6.60213 14.342 6.2206 14.0607 5.9393C13.7794 5.65799 13.3978 5.49996 13 5.49996H8.5V4.93746C8.92916 4.82599 9.30923 4.57531 9.58066 4.22471C9.8521 3.8741 9.99958 3.44336 10 2.99996C10 1.24996 8.3475 0.130584 8.2775 0.0837086C8.19533 0.0288891 8.09877 -0.000366211 8 -0.000366211C7.90123 -0.000366211 7.80467 0.0288891 7.7225 0.0837086C7.6525 0.130584 6 1.24996 6 2.99996C6.00042 3.44336 6.1479 3.8741 6.41934 4.22471C6.69077 4.57531 7.07084 4.82599 7.5 4.93746V5.49996H3C2.60218 5.49996 2.22064 5.65799 1.93934 5.9393C1.65804 6.2206 1.5 6.60213 1.5 6.99996V8.45808C1.50051 9.00354 1.67574 9.53448 2 9.97308V12.5C2 12.8978 2.15804 13.2793 2.43934 13.5606C2.72064 13.8419 3.10218 14 3.5 14H12.5C12.8978 14 13.2794 13.8419 13.5607 13.5606C13.842 13.2793 14 12.8978 14 12.5V9.97308C14.3243 9.53448 14.4995 9.00354 14.5 8.45808V6.99996ZM7 2.99996C7 2.15183 7.625 1.47121 8 1.13808C8.375 1.47121 9 2.15183 9 2.99996C9 3.26518 8.89464 3.51953 8.70711 3.70707C8.51957 3.8946 8.26522 3.99996 8 3.99996C7.73478 3.99996 7.48043 3.8946 7.29289 3.70707C7.10536 3.51953 7 3.26518 7 2.99996ZM2.5 6.99996C2.5 6.86735 2.55268 6.74017 2.64645 6.64641C2.74021 6.55264 2.86739 6.49996 3 6.49996H13C13.1326 6.49996 13.2598 6.55264 13.3536 6.64641C13.4473 6.74017 13.5 6.86735 13.5 6.99996V8.45808C13.5 9.28621 12.8462 9.97746 12.0425 9.99933C11.842 10.005 11.6424 9.97044 11.4556 9.89764C11.2687 9.82485 11.0983 9.71532 10.9545 9.57553C10.8107 9.43573 10.6964 9.26852 10.6183 9.08378C10.5402 8.89904 10.5 8.70052 10.5 8.49996C10.5 8.36735 10.4473 8.24017 10.3536 8.14641C10.2598 8.05264 10.1326 7.99996 10 7.99996C9.86739 7.99996 9.74021 8.05264 9.64645 8.14641C9.55268 8.24017 9.5 8.36735 9.5 8.49996C9.5 8.89778 9.34196 9.27931 9.06066 9.56062C8.77936 9.84192 8.39782 9.99996 8 9.99996C7.60218 9.99996 7.22064 9.84192 6.93934 9.56062C6.65804 9.27931 6.5 8.89778 6.5 8.49996C6.5 8.36735 6.44732 8.24017 6.35355 8.14641C6.25979 8.05264 6.13261 7.99996 6 7.99996C5.86739 7.99996 5.74021 8.05264 5.64645 8.14641C5.55268 8.24017 5.5 8.36735 5.5 8.49996C5.50008 8.70057 5.45992 8.89916 5.38189 9.08397C5.30387 9.26879 5.18956 9.43607 5.04574 9.57593C4.90192 9.71579 4.73151 9.82538 4.54459 9.89821C4.35766 9.97104 4.15803 10.0056 3.9575 9.99996C3.15375 9.97746 2.5 9.28621 2.5 8.45808V6.99996ZM12.5 13H3.5C3.36739 13 3.24021 12.9473 3.14645 12.8535C3.05268 12.7597 3 12.6326 3 12.5V10.785C3.29269 10.9175 3.60882 10.9906 3.93 11C4.26415 11.0103 4.59695 10.953 4.90842 10.8316C5.21988 10.7101 5.50359 10.5269 5.7425 10.2931C5.83576 10.2022 5.92186 10.1042 6 9.99996C6.23287 10.3104 6.53483 10.5625 6.88197 10.736C7.2291 10.9096 7.61189 11 8 11C8.38811 11 8.7709 10.9096 9.11803 10.736C9.46517 10.5625 9.76713 10.3104 10 9.99996C10.0784 10.1038 10.1647 10.2013 10.2581 10.2918C10.7233 10.7474 11.3489 11.0018 12 11H12.0712C12.392 10.9904 12.7077 10.9174 13 10.785V12.5C13 12.6326 12.9473 12.7597 12.8536 12.8535C12.7598 12.9473 12.6326 13 12.5 13Z" fill="currentColor"/>
	</symbol>

	<symbol viewBox="0 0 16 16" id="comfort-food">
		<path d="M8 1.5C6.71442 1.5 5.45772 1.88122 4.3888 2.59545C3.31988 3.30968 2.48676 4.32484 1.99479 5.51256C1.50282 6.70028 1.37409 8.00721 1.6249 9.26809C1.8757 10.529 2.49477 11.6872 3.40381 12.5962C4.31285 13.5052 5.47104 14.1243 6.73192 14.3751C7.99279 14.6259 9.29973 14.4972 10.4874 14.0052C11.6752 13.5132 12.6903 12.6801 13.4046 11.6112C14.1188 10.5423 14.5 9.28558 14.5 8C14.4982 6.27665 13.8128 4.62441 12.5942 3.40582C11.3756 2.18722 9.72335 1.50182 8 1.5ZM8 13.5C6.91221 13.5 5.84884 13.1774 4.94437 12.5731C4.0399 11.9687 3.33495 11.1098 2.91867 10.1048C2.50238 9.09977 2.39347 7.9939 2.60568 6.927C2.8179 5.86011 3.34173 4.8801 4.11092 4.11091C4.8801 3.34172 5.86011 2.8179 6.92701 2.60568C7.9939 2.39346 9.09977 2.50238 10.1048 2.91866C11.1098 3.33494 11.9687 4.03989 12.5731 4.94436C13.1774 5.84883 13.5 6.9122 13.5 8C13.4983 9.45818 12.9184 10.8562 11.8873 11.8873C10.8562 12.9184 9.45819 13.4983 8 13.5ZM5 6.75C5 6.60166 5.04399 6.45666 5.1264 6.33332C5.20881 6.20999 5.32595 6.11386 5.46299 6.05709C5.60003 6.00032 5.75083 5.98547 5.89632 6.01441C6.04181 6.04335 6.17544 6.11478 6.28033 6.21967C6.38522 6.32456 6.45665 6.4582 6.48559 6.60368C6.51453 6.74917 6.49968 6.89997 6.44291 7.03701C6.38615 7.17406 6.29002 7.29119 6.16668 7.3736C6.04334 7.45601 5.89834 7.5 5.75 7.5C5.55109 7.5 5.36032 7.42098 5.21967 7.28033C5.07902 7.13968 5 6.94891 5 6.75ZM11.5 6.75C11.5 6.88261 11.4473 7.00979 11.3536 7.10355C11.2598 7.19732 11.1326 7.25 11 7.25H9.5C9.36739 7.25 9.24022 7.19732 9.14645 7.10355C9.05268 7.00979 9 6.88261 9 6.75C9 6.61739 9.05268 6.49021 9.14645 6.39645C9.24022 6.30268 9.36739 6.25 9.5 6.25H11C11.1326 6.25 11.2598 6.30268 11.3536 6.39645C11.4473 6.49021 11.5 6.61739 11.5 6.75ZM10.9325 9.75C10.2894 10.8619 9.22063 11.5 8 11.5C6.77938 11.5 5.71063 10.8625 5.06688 9.75C5.03405 9.69312 5.01274 9.63033 5.00418 9.56522C4.99561 9.50011 4.99996 9.43395 5.01696 9.37051C5.03397 9.30708 5.0633 9.24761 5.10328 9.19552C5.14327 9.14342 5.19312 9.09971 5.25 9.06688C5.30688 9.03405 5.36967 9.01274 5.43478 9.00417C5.4999 8.99561 5.56606 8.99995 5.62949 9.01696C5.69293 9.03396 5.75239 9.06329 5.80449 9.10328C5.85659 9.14327 5.9003 9.19312 5.93313 9.25C6.39938 10.0569 7.13313 10.5 8 10.5C8.86688 10.5 9.60063 10.0562 10.0675 9.25C10.0988 9.19025 10.1418 9.13743 10.194 9.09474C10.2462 9.05204 10.3065 9.02035 10.3712 9.00156C10.436 8.98277 10.5039 8.97728 10.5708 8.98541C10.6378 8.99354 10.7024 9.01513 10.7608 9.04888C10.8191 9.08262 10.8701 9.12783 10.9106 9.18178C10.951 9.23573 10.9801 9.29731 10.9962 9.36281C11.0122 9.4283 11.0149 9.49637 11.0039 9.56291C10.993 9.62945 10.9687 9.69309 10.9325 9.75Z" fill="currentColor"/>
	</symbol>

	<symbol viewBox="0 0 16 16" id="lighting">
		<path d="M13.4869 7.38568C13.468 7.30555 13.4295 7.23132 13.375 7.16961C13.3205 7.1079 13.2516 7.06061 13.1744 7.03193L9.57377 5.68131L10.49 1.09818C10.5108 0.991697 10.4963 0.881351 10.4489 0.783797C10.4014 0.686244 10.3235 0.606776 10.2269 0.557385C10.1303 0.507994 10.0202 0.491361 9.91337 0.509995C9.80649 0.528628 9.70858 0.581519 9.6344 0.660684L2.6344 8.16068C2.57754 8.22059 2.53641 8.29365 2.51469 8.37333C2.49296 8.45301 2.4913 8.53683 2.50987 8.6173C2.52845 8.69778 2.56666 8.7724 2.62111 8.8345C2.67556 8.8966 2.74454 8.94425 2.8219 8.97318L6.42377 10.3238L5.51002 14.9019C5.48927 15.0084 5.50372 15.1188 5.55119 15.2163C5.59866 15.3139 5.67657 15.3933 5.77316 15.4427C5.86976 15.4921 5.97979 15.5088 6.08667 15.4901C6.19355 15.4715 6.29146 15.4186 6.36565 15.3394L13.3656 7.83943C13.4215 7.77951 13.4617 7.7068 13.4829 7.62768C13.504 7.54856 13.5054 7.46546 13.4869 7.38568ZM6.83565 13.3751L7.49002 10.1013C7.51344 9.9852 7.49488 9.86455 7.43765 9.76085C7.38042 9.65715 7.28824 9.57714 7.17752 9.53506L3.87502 8.29443L9.16377 2.62818L8.51002 5.90193C8.4866 6.01804 8.50516 6.13869 8.56239 6.24239C8.61962 6.34609 8.7118 6.42611 8.82252 6.46818L12.1225 7.70568L6.83565 13.3751Z" fill="currentColor"/>
	</symbol>

	<symbol viewBox="0 0 16 16" id="fast">
		<path d="M13.1988 12.285L8.72314 8L13.1988 3.715C13.2013 3.71217 13.2041 3.70946 13.2069 3.70688C13.3466 3.56702 13.4418 3.38888 13.4804 3.19496C13.5189 3.00104 13.4991 2.80005 13.4235 2.61738C13.3478 2.43471 13.2197 2.27857 13.0553 2.16868C12.891 2.05879 12.6977 2.00009 12.5 2H3.50001C3.30235 2.00022 3.10919 2.059 2.94492 2.16894C2.78065 2.27887 2.65265 2.43502 2.57707 2.61767C2.5015 2.80031 2.48175 3.00125 2.52032 3.19512C2.55889 3.38898 2.65404 3.56706 2.79376 3.70688L2.80126 3.715L7.27689 8L2.80126 12.285L2.79376 12.2931C2.65404 12.4329 2.55889 12.611 2.52032 12.8049C2.48175 12.9987 2.5015 13.1997 2.57707 13.3823C2.65265 13.565 2.78065 13.7211 2.94492 13.8311C3.10919 13.941 3.30235 13.9998 3.50001 14H12.5C12.6978 14 12.8911 13.9414 13.0556 13.8316C13.22 13.7217 13.3482 13.5656 13.424 13.3829C13.4997 13.2002 13.5195 12.9992 13.481 12.8052C13.4425 12.6112 13.3473 12.433 13.2075 12.2931C13.2045 12.2906 13.2015 12.2878 13.1988 12.285ZM9.88814 10.5H6.11189L8.00001 8.6925L9.88814 10.5ZM12.5 3L8.00001 7.3075L3.50001 3H12.5ZM3.50001 13L5.06626 11.5H10.9313L12.5 13H3.50001Z" fill="currentColor"/>
	</symbol>

	<symbol viewBox="0 0 16 16" id="check">
		<path d="M15.205 4.26496L13.705 2.79246C13.5176 2.60564 13.2637 2.50073 12.9991 2.50073C12.7344 2.50073 12.4806 2.60564 12.2931 2.79246L6.50002 8.51433L4.2069 6.28933C4.01907 6.10312 3.76512 5.99889 3.50062 5.99948C3.23613 6.00007 2.98265 6.10541 2.79565 6.29246L1.29565 7.79246C1.10844 7.97995 1.0033 8.23407 1.0033 8.49902C1.0033 8.76397 1.10844 9.01809 1.29565 9.20558L5.7719 13.7056C5.86476 13.7985 5.97501 13.8721 6.09635 13.9224C6.21769 13.9727 6.34774 13.9986 6.47908 13.9986C6.61042 13.9986 6.74048 13.9727 6.86182 13.9224C6.98316 13.8721 7.09341 13.7985 7.18627 13.7056L15.2081 5.68183C15.3012 5.58872 15.375 5.47815 15.4252 5.35647C15.4754 5.23479 15.5011 5.10439 15.5008 4.97275C15.5005 4.84111 15.4742 4.71082 15.4235 4.58936C15.3727 4.4679 15.2985 4.35766 15.205 4.26496ZM6.47627 13L2.00002 8.49996L3.50002 6.99996C3.50184 7.00146 3.50352 7.00314 3.50502 7.00496L6.1519 9.57308C6.24533 9.66451 6.37086 9.71571 6.50158 9.71571C6.63231 9.71571 6.75783 9.66451 6.85127 9.57308L13.0038 3.49996L14.5 4.97496L6.47627 13Z" fill="currentColor"/>
	</symbol>

	<symbol viewBox="0 0 16 16" id="few-ingredients">
		<path d="M8.50003 7.5V11C8.50003 11.1326 8.44736 11.2598 8.35359 11.3536C8.25982 11.4473 8.13264 11.5 8.00003 11.5C7.86742 11.5 7.74025 11.4473 7.64648 11.3536C7.55271 11.2598 7.50003 11.1326 7.50003 11V7.5C7.50003 7.36739 7.55271 7.24021 7.64648 7.14645C7.74025 7.05268 7.86742 7 8.00003 7C8.13264 7 8.25982 7.05268 8.35359 7.14645C8.44736 7.24021 8.50003 7.36739 8.50003 7.5ZM10.8025 7.45L10.4525 10.95C10.4456 11.0155 10.4517 11.0818 10.4705 11.1449C10.4893 11.2081 10.5203 11.2669 10.5619 11.318C10.6035 11.3692 10.6548 11.4115 10.7128 11.4428C10.7708 11.474 10.8345 11.4934 10.9 11.5C10.9169 11.501 10.9338 11.501 10.9507 11.5C11.0745 11.4998 11.1939 11.4537 11.2857 11.3706C11.3775 11.2875 11.4351 11.1732 11.4475 11.05L11.7975 7.55C11.8108 7.41805 11.7711 7.28625 11.6872 7.18357C11.6033 7.08089 11.482 7.01576 11.35 7.0025C11.2181 6.98924 11.0863 7.02894 10.9836 7.11286C10.8809 7.19678 10.8158 7.31805 10.8025 7.45ZM5.19753 7.45C5.18427 7.31805 5.11914 7.19678 5.01646 7.11286C4.91379 7.02894 4.78198 6.98924 4.65003 7.0025C4.51809 7.01576 4.39682 7.08089 4.31289 7.18357C4.22897 7.28625 4.18927 7.41805 4.20253 7.55L4.55253 11.05C4.56497 11.1738 4.62309 11.2884 4.71555 11.3717C4.808 11.4549 4.92815 11.5006 5.05253 11.5C5.06939 11.501 5.0863 11.501 5.10316 11.5C5.16849 11.4934 5.23189 11.4741 5.28974 11.443C5.34759 11.4119 5.39875 11.3698 5.4403 11.3189C5.48186 11.2681 5.51299 11.2096 5.53192 11.1467C5.55086 11.0838 5.55723 11.0178 5.55066 10.9525L5.19753 7.45ZM14.9957 5.56625L14.0538 12.6325C14.0209 12.8723 13.9025 13.0922 13.7204 13.2516C13.5382 13.411 13.3046 13.4992 13.0625 13.5H2.93753C2.69548 13.4992 2.46185 13.411 2.2797 13.2516C2.09755 13.0922 1.97914 12.8723 1.94628 12.6325L1.00441 5.56625C0.994967 5.49562 1.00073 5.42378 1.02132 5.35556C1.0419 5.28734 1.07683 5.22431 1.12376 5.17069C1.1707 5.11707 1.22855 5.0741 1.29344 5.04466C1.35834 5.01522 1.42877 4.99999 1.50003 5H4.27316L7.62503 1.17062C7.67195 1.11742 7.72966 1.07481 7.79431 1.04562C7.85897 1.01644 7.9291 1.00134 8.00003 1.00134C8.07097 1.00134 8.1411 1.01644 8.20575 1.04562C8.27041 1.07481 8.32811 1.11742 8.37503 1.17062L11.7269 5H14.5C14.5713 4.99999 14.6417 5.01522 14.7066 5.04466C14.7715 5.0741 14.8294 5.11707 14.8763 5.17069C14.9232 5.22431 14.9582 5.28734 14.9788 5.35556C14.9993 5.42378 15.0051 5.49562 14.9957 5.56625ZM5.60191 5H10.3982L8.00003 2.25937L5.60191 5ZM13.9288 6H2.07128L2.93753 12.5H13.0625L13.9288 6Z" fill="currentColor"/>
	</symbol>

	<symbol viewBox="0 0 16 16" id="star">
		<path d="M14.9488 6.07879C14.8863 5.88661 14.7683 5.71724 14.6097 5.59201C14.4511 5.46677 14.259 5.39128 14.0575 5.37504L10.37 5.07754L8.94629 1.63441C8.8693 1.4468 8.73825 1.28632 8.56981 1.17337C8.40137 1.06043 8.20315 1.00012 8.00035 1.00012C7.79756 1.00012 7.59934 1.06043 7.4309 1.17337C7.26246 1.28632 7.13141 1.4468 7.05442 1.63441L5.63192 5.07691L1.94254 5.37504C1.74078 5.3921 1.54854 5.46833 1.3899 5.59416C1.23127 5.72 1.1133 5.88986 1.05077 6.08244C0.988239 6.27503 0.983936 6.48179 1.0384 6.67682C1.09286 6.87184 1.20366 7.04645 1.35692 7.17879L4.16942 9.60566L3.31254 13.2344C3.26462 13.4316 3.27635 13.6385 3.34625 13.8289C3.41615 14.0194 3.54107 14.1848 3.70514 14.3041C3.86921 14.4235 4.06505 14.4914 4.26778 14.4992C4.47051 14.5071 4.671 14.4545 4.84379 14.3482L8.00004 12.4057L11.1582 14.3482C11.331 14.4532 11.5311 14.5048 11.7332 14.4964C11.9353 14.4879 12.1304 14.4199 12.2939 14.3008C12.4574 14.1817 12.5821 14.0169 12.6521 13.8272C12.7221 13.6374 12.7345 13.4312 12.6875 13.2344L11.8275 9.60503L14.64 7.17816C14.7945 7.04605 14.9064 6.87106 14.9613 6.67535C15.0163 6.47964 15.0119 6.27202 14.9488 6.07879ZM13.99 6.42066L10.9463 9.04566C10.8769 9.10549 10.8252 9.18324 10.797 9.27043C10.7688 9.35762 10.7651 9.45088 10.7863 9.54004L11.7163 13.465C11.7187 13.4704 11.7189 13.4766 11.717 13.4822C11.715 13.4877 11.7109 13.4923 11.7057 13.495C11.6944 13.5038 11.6913 13.5019 11.6819 13.495L8.26192 11.3919C8.18315 11.3435 8.0925 11.3178 8.00004 11.3178C7.90758 11.3178 7.81693 11.3435 7.73817 11.3919L4.31817 13.4963C4.30879 13.5019 4.30629 13.5038 4.29442 13.4963C4.28914 13.4936 4.2851 13.489 4.28312 13.4834C4.28115 13.4778 4.28139 13.4717 4.28379 13.4663L5.21379 9.54129C5.23499 9.45213 5.23127 9.35887 5.20306 9.27168C5.17484 9.18449 5.1232 9.10674 5.05379 9.04691L2.01004 6.42191C2.00254 6.41566 1.99567 6.41004 2.00192 6.39066C2.00817 6.37129 2.01317 6.37379 2.02254 6.37254L6.01754 6.05004C6.10917 6.04218 6.19686 6.0092 6.27096 5.95472C6.34506 5.90025 6.4027 5.8264 6.43754 5.74129L7.97629 2.01566C7.98129 2.00504 7.98317 2.00004 7.99817 2.00004C8.01317 2.00004 8.01504 2.00504 8.02004 2.01566L9.56254 5.74129C9.59771 5.82643 9.65572 5.9002 9.73016 5.95447C9.80461 6.00873 9.89259 6.04137 9.98442 6.04879L13.9794 6.37129C13.9888 6.37129 13.9944 6.37129 14 6.38941C14.0057 6.40754 14 6.41441 13.99 6.42066Z" fill="currentColor"/>
	</symbol>

	<symbol viewBox="0 0 12 14" id="rezept">
		<path d="M8.5 8.50003C8.5 8.63264 8.44732 8.75982 8.35355 8.85359C8.25979 8.94735 8.13261 9.00003 8 9.00003H4C3.86739 9.00003 3.74021 8.94735 3.64645 8.85359C3.55268 8.75982 3.5 8.63264 3.5 8.50003C3.5 8.36742 3.55268 8.24025 3.64645 8.14648C3.74021 8.05271 3.86739 8.00003 4 8.00003H8C8.13261 8.00003 8.25979 8.05271 8.35355 8.14648C8.44732 8.24025 8.5 8.36742 8.5 8.50003ZM8 6.00003H4C3.86739 6.00003 3.74021 6.05271 3.64645 6.14648C3.55268 6.24025 3.5 6.36742 3.5 6.50003C3.5 6.63264 3.55268 6.75982 3.64645 6.85358C3.74021 6.94735 3.86739 7.00003 4 7.00003H8C8.13261 7.00003 8.25979 6.94735 8.35355 6.85358C8.44732 6.75982 8.5 6.63264 8.5 6.50003C8.5 6.36742 8.44732 6.24025 8.35355 6.14648C8.25979 6.05271 8.13261 6.00003 8 6.00003ZM11.5 2.00003V12.5C11.5 12.7652 11.3946 13.0196 11.2071 13.2071C11.0196 13.3947 10.7652 13.5 10.5 13.5H1.5C1.23478 13.5 0.98043 13.3947 0.792893 13.2071C0.605357 13.0196 0.5 12.7652 0.5 12.5V2.00003C0.5 1.73482 0.605357 1.48046 0.792893 1.29292C0.98043 1.10539 1.23478 1.00003 1.5 1.00003H3.76625C4.04719 0.685484 4.39139 0.433817 4.77633 0.261505C5.16127 0.0891935 5.57826 0.00012207 6 0.00012207C6.42174 0.00012207 6.83873 0.0891935 7.22367 0.261505C7.6086 0.433817 7.95281 0.685484 8.23375 1.00003H10.5C10.7652 1.00003 11.0196 1.10539 11.2071 1.29292C11.3946 1.48046 11.5 1.73482 11.5 2.00003ZM4 3.00003H8C8 2.4696 7.78929 1.96089 7.41421 1.58582C7.03914 1.21075 6.53043 1.00003 6 1.00003C5.46957 1.00003 4.96086 1.21075 4.58579 1.58582C4.21071 1.96089 4 2.4696 4 3.00003ZM10.5 2.00003H8.82812C8.9419 2.32116 9.00002 2.65935 9 3.00003V3.50003C9 3.63264 8.94732 3.75982 8.85355 3.85358C8.75979 3.94735 8.63261 4.00003 8.5 4.00003H3.5C3.36739 4.00003 3.24021 3.94735 3.14645 3.85358C3.05268 3.75982 3 3.63264 3 3.50003V3.00003C2.99997 2.65935 3.0581 2.32116 3.17188 2.00003H1.5V12.5H10.5V2.00003Z" fill="currentColor"/>
	</symbol>

</svg>